<svg xmlns="http://www.w3.org/2000/svg" xmlns:xlink="http://www.w3.org/1999/xlink" viewBox="0 0 324.8 515.8">
  <defs>
    <linearGradient id="a" gradientUnits="userSpaceOnUse" x1="-48.334" y1="-156.927" x2="50.687" y2="131.966">
      <stop offset="0" stop-color="#B9120D"/>
      <stop offset=".078" stop-color="#BB180D"/>
      <stop offset=".182" stop-color="#C0290C"/>
      <stop offset=".301" stop-color="#C8450A"/>
      <stop offset=".431" stop-color="#D36C08"/>
      <stop offset=".571" stop-color="#E29E05"/>
      <stop offset=".715" stop-color="#F4DA02"/>
      <stop offset=".792" stop-color="#FEFD00"/>
      <stop offset=".814" stop-color="#FEFD07"/>
      <stop offset=".846" stop-color="#FEFD1B"/>
      <stop offset=".884" stop-color="#FEFE3C"/>
      <stop offset=".927" stop-color="#FFFE69"/>
      <stop offset=".974" stop-color="#FFFFA3"/>
      <stop offset="1" stop-color="#FFFFC7"/>
    </linearGradient>
    <linearGradient id="b" gradientUnits="userSpaceOnUse" x1="-110.282" y1="-135.688" x2="-11.263" y2="153.201">
      <stop offset="0" stop-color="#B9120D"/>
      <stop offset=".078" stop-color="#BB180D"/>
      <stop offset=".182" stop-color="#C0290C"/>
      <stop offset=".301" stop-color="#C8450A"/>
      <stop offset=".431" stop-color="#D36C08"/>
      <stop offset=".571" stop-color="#E29E05"/>
      <stop offset=".715" stop-color="#F4DA02"/>
      <stop offset=".792" stop-color="#FEFD00"/>
      <stop offset=".814" stop-color="#FEFD07"/>
      <stop offset=".846" stop-color="#FEFD1B"/>
      <stop offset=".884" stop-color="#FEFE3C"/>
      <stop offset=".927" stop-color="#FFFE69"/>
      <stop offset=".974" stop-color="#FFFFA3"/>
      <stop offset="1" stop-color="#FFFFC7"/>
    </linearGradient>
    <linearGradient id="c" gradientUnits="userSpaceOnUse" x1="-86.695" y1="-143.765" x2="12.321" y2="145.118">
      <stop offset="0" stop-color="#B9120D"/>
      <stop offset=".078" stop-color="#BB180D"/>
      <stop offset=".182" stop-color="#C0290C"/>
      <stop offset=".301" stop-color="#C8450A"/>
      <stop offset=".431" stop-color="#D36C08"/>
      <stop offset=".571" stop-color="#E29E05"/>
      <stop offset=".715" stop-color="#F4DA02"/>
      <stop offset=".792" stop-color="#FEFD00"/>
      <stop offset=".814" stop-color="#FEFD07"/>
      <stop offset=".846" stop-color="#FEFD1B"/>
      <stop offset=".884" stop-color="#FEFE3C"/>
      <stop offset=".927" stop-color="#FFFE69"/>
      <stop offset=".974" stop-color="#FFFFA3"/>
      <stop offset="1" stop-color="#FFFFC7"/>
    </linearGradient>
    <filter id="redGlow">
      <feGaussianBlur stdDeviation="8" result="blur" in="SourceAlpha"/>
      <feFlood result="red" flood-color="#E31E26" flood-opacity=".8"/>
      <feComposite operator="in" result="redBlur" in2="blur" in="red"/>
      <feMerge>
      <feMergeNode in="redBlur"/>
      <feMergeNode in="SourceGraphic"/>
      </feMerge>
    </filter>
  </defs>
  <symbol id="e" viewBox="-107.1 -104.6 214.3 209.1">
    <path fill="#DF731B" d="M-78.5 44.6c0-10.1 7.4-28.4 2.4-45.3-4-13.2 7.5-23.1 7.5-28.3 0-27.4 31.2-48.5 68.5-48.5 37.2 0 68.9 19.6 68.9 50.4 0 5.2 11.8 13.3 7.5 26.4-5.4 16.5 2.4 35.2 2.4 45.3 0 31.9-35.2 57.9-78.5 57.9s-78.7-25.9-78.7-57.9z"/>
    <path fill="#FFC" d="M46.8 44.1c16 12.2-1.6 38.6-36.7 40.9-4.1.2-16.1.2-20.2 0-35.1-2.3-52.7-28.6-36.7-40.9 14.2-10.9 15-16.9 11.8-21.5C-44.9 9.1-51-10-51-31.2c0-13.4 2.4-25.1 6.7-34.9 12-7.1 27.5-11.4 44.1-11.4 16.7 0 32.2 3.9 44.3 11.1 4.4 9.9 6.9 21.8 6.9 35.3C51-10 44.9 9.1 35 22.6c-3.4 5.1-2.4 10.6 11.8 21.5z"/>
    <path fill="none" stroke="#000" stroke-width="4" stroke-linecap="round" stroke-linejoin="round" d="M-77.7 44.6c0-10.1 6.6-28.4 1.6-45.3-4-13.2 7.5-23.1 7.5-28.3 0-27.4 31.2-48.5 68.5-48.5 37.2 0 68.9 19.6 68.9 50.4 0 5.2 11.8 13.3 7.5 26.4-5.4 16.5 1.6 35.2 1.6 45.3 0 31.9-34.4 57.9-77.7 57.9s-77.9-25.9-77.9-57.9z"/>
    <path fill="#DF731B" d="M70.7 31.5c23.3-12.3 33.5-34.4 34.4-58 1.2-31.6-17.2-41.4-14.9-44.8 2.3-3.4 20.1-15.5 6.9-22.4-13.2-6.9-45.4 2.9-54 9.2-8.6 6.3-2.7 10.6-2.7 15.2 0 0 17 15.9 22.3 31C65.6-30 66-19.1 65-12.9"/>
    <path fill="#332F20" d="M43-84.5c8.6-6.3 40.8-16.1 54-9.2 13.2 6.9-4.6 19-6.9 22.4-.1.3-.2.6-.1.9-15.3.5-35.7-2.4-43.6-5.8-2.7-1.2-5.2-2.5-7.2-4 .7-1.4 1.9-2.8 3.8-4.3z"/>
    <path fill="none" stroke="#000" stroke-width="4" stroke-linecap="round" stroke-linejoin="round" d="M70.7 31.5c23.3-12.3 33.5-34.4 34.4-58 1.2-31.6-17.2-41.4-14.9-44.8 2.3-3.4 20.1-15.5 6.9-22.4-13.2-6.9-45.4 2.9-54 9.2-8.6 6.3-2.7 10.6-2.7 15.2 0 0 17 15.9 22.3 31C65.6-30 66-19.1 65-12.9"/>
    <g>
      <path fill="#DF731B" d="M-70.7 31.5c-23.3-12.3-33.5-34.4-34.4-58-1.2-31.6 17.2-41.4 14.9-44.8-2.3-3.4-20.1-15.5-6.9-22.4 13.2-6.9 45.4 2.9 54 9.2 8.6 6.3 2.7 10.6 2.7 15.2 0 0-17 15.9-22.3 31C-65.6-30-66-19.1-65-12.9"/>
      <path fill="#332F20" d="M-43-84.5c-8.6-6.3-40.8-16.1-54-9.2-13.2 6.9 4.6 19 6.9 22.4.2.3.2.5.2.9 15.3.5 35.7-2.4 43.6-5.8 2.7-1.2 5.2-2.5 7.2-4-.8-1.4-2-2.8-3.9-4.3z"/>
      <path fill="none" stroke="#000" stroke-width="4" stroke-linecap="round" stroke-linejoin="round" d="M-70.7 31.5c-23.3-12.3-33.5-34.4-34.4-58-1.2-31.6 17.2-41.4 14.9-44.8-2.3-3.4-20.1-15.5-6.9-22.4 13.2-6.9 45.4 2.9 54 9.2 8.6 6.3 2.7 10.6 2.7 15.2 0 0-17 15.9-22.3 31C-65.6-30-66-19.1-65-12.9"/>
    </g>
    <g>
      <path fill="#DF731B" d="M-32.8-3.6c2.9-10.9 6.3-93.7 4.6-96-1.7-2.3-23-4-27.6-2.3-4.6 1.7-5.2 6.9-12.1 40.2-9.6 46.2-12.3 82.8-10.5 105.2 1.3 16.7 14.3 37.2 24.7 39"/>
      <path fill="#332F20" d="M-55.8-101.9c4.6-1.7 25.9 0 27.6 2.3.8 1.1.5 21.2-.5 42.8-11 .4-25.2-.7-39.5-3.4l.3-1.5c7-33.3 7.5-38.4 12.1-40.2z"/>
      <path fill="none" stroke="#000" stroke-width="4" stroke-linecap="round" stroke-linejoin="round" d="M-32.8-3.6c2.9-10.9 6.3-93.7 4.6-96-1.7-2.3-23-4-27.6-2.3-4.6 1.7-5.2 6.9-12.1 40.2-9.6 46.2-12.3 82.8-10.5 105.2 1.3 16.7 14.3 37.2 24.7 39"/>
      <g>
        <path fill="#DF731B" d="M32.8-3.6c-2.9-10.9-6.3-93.7-4.6-96 1.7-2.3 23-4 27.6-2.3 4.6 1.7 5.2 6.9 12.1 40.2 9.6 46.2 12.3 82.8 10.5 105.2-1.3 16.7-14.3 37.2-24.7 39"/>
        <path fill="#332F20" d="M55.8-101.9c-4.6-1.7-25.9 0-27.6 2.3-.8 1.1-.5 21.2.5 42.8 11 .4 25.2-.7 39.5-3.4l-.3-1.5c-7-33.3-7.5-38.4-12.1-40.2z"/>
        <path fill="none" stroke="#000" stroke-width="4" stroke-linecap="round" stroke-linejoin="round" d="M32.8-3.6c-2.9-10.9-6.3-93.7-4.6-96 1.7-2.3 23-4 27.6-2.3 4.6 1.7 5.2 6.9 12.1 40.2 9.6 46.2 12.3 82.8 10.5 105.2-1.3 16.7-14.3 37.2-24.7 39"/>
      </g>
    </g>
    <g fill="none" stroke="#20BF00" stroke-linecap="round" stroke-linejoin="round">
      <path stroke-width="3" d="M9.7 69.6c0-5.3-4.3-9.7-9.7-9.7-5.3 0-9.7 4.3-9.7 9.7 0 5.3 4.3 9.7 9.7 9.7 5.3 0 9.7-4.4 9.7-9.7z"/>
      <path stroke-width="2.707" d="M-16.9 69.6h33.8"/>
      <path stroke-width="2.721" d="M0 85.3V53.9"/>
    </g>
  </symbol>
  <symbol id="d" viewBox="-123.7 -225.8 247.4 451.7">
    <path fill="url(#a)" d="M13.1-201.2c-3.6 6.4 5.6 31.8 14.4 49.4 16.7 33.5 49.4 42 66.1 120.7C110.3 47.7 78.7 108 34.4 139.6c14.4-27.6 13.5-47.1 8-56.3-21.8-36.8-82.8-8-116.1-42-14.8-15.1-20.7-31-24.1-67.8-3.4-36.8 19.5-82.8 45.4-124.2C-26.6-192-16.2-200-16.2-200l29.3-1.2z"/>
    <path fill="url(#b)" d="M-6.5 199.5c3.8-10.2 9.9-9.5 11.5-31-9.8 16.2-11.5 3-11.5 31z"/>
    <path fill="url(#c)" d="M-3.6 158.1c4-8 5.7-17.8 12.6-23.6 6.9-5.7 9.8-3.4 17.2-8-5.2 9.2-4 8.6-10.3 17.2-6.3 8.6-16 8.1-19.5 14.4z"/>
  </symbol>
  <symbol id="f" viewBox="-115.6 -99.9 231.3 199.9">
    <g fill="none" stroke="#20BF00" stroke-linecap="round" stroke-linejoin="round">
      <path stroke-width="3" d="M10.1-55.5c0-5.3-4.3-9.7-9.7-9.7-5.3 0-9.7 4.3-9.7 9.7 0 5.3 4.3 9.7 9.7 9.7 5.4 0 9.7-4.4 9.7-9.7z"/>
      <path stroke-width="2.707" d="M-16.5-55.5h33.9"/>
      <path stroke-width="2.721" d="M.5-39.8v-31.4"/>
    </g>
    <path fill="#DF731B" d="M-90.1 38.6c-7.8-29.2-22.9-50.2-23-50.4l-.6-1s6.7-4.1 8.5-6c-2.1-.9-7.6-3.3-7.6-3.3s5.5-5 7.3-6.7c-1.9-1.1-7.1-4.2-7.1-4.2l2-1.3c.2-.1 15.3-1.7 24.7-21.9C-80.8-66.9-59.9-88 .4-88 60-88 80.9-69.4 87.1-55.5c8 17.7 24.2 21 24.4 21.2l1.8 1.3s-5.1 3-7 4.1c1.9 1.7 7.3 6.7 7.3 6.7s-5.4 2.4-7.6 3.3c1.8 1.9 6.1 6.2 6.1 6.2l-.6 1c-.1.1-11.3 21.6-20.5 50.2C78.9 76.5 42.7 97.9.5 97.9c-36 0-78.9-17-90.6-59.3z"/>
    <path fill="#FFC" d="M-110.5-34.4c5.6-1.4 19.8-15.4 24.1-24.7 5-10.6 27.2-41.4 87-40.8 63.2.5 77 29.7 87 42.8 5.6 7.3 14.5 17.6 23.8 22.8 2.8 2.9-4.7 4.4-2.9 5.9-10.5 6.9-43 11.4-60.2 3.2-18.3-8.7-23.2-15-47.9-15h.5-1.1.5c-22.1-.2-29.2 5.2-47.9 15-19.5 10.3-50.3 2.5-59.9-3.4 1.9-1.4-6.8-4.9-3-5.8z"/>
    <path fill="none" stroke="#000" stroke-width="4" stroke-linecap="round" stroke-linejoin="round" d="M-32.2-96.4c-30.2 6.2-48.4 27.3-55.4 39.3-7.6 13-22.7 22.6-22.8 22.7l-2 1.3s5.2 3.1 7.1 4.2c-1.9 1.7-7.3 6.7-7.3 6.7s5.4 2.4 7.6 3.3c-1.8 1.9-8.5 6-8.5 6l.6 1c.1.1 13.7 18.2 23 50.4C-77.2 74-44.3 97.9.7 97.9c45 0 76.9-23.8 89.6-59.4 9.3-32.2 22.9-50.2 23-50.4l.6-1s-6.7-4.1-8.5-6c2.1-.9 7.6-3.3 7.6-3.3s-5.5-5-7.3-6.7c1.9-1.1 7.1-4.2 7.1-4.2l-2-1.3c-.2-.1-15.2-9.7-22.8-22.7-7.1-12-25.3-33.1-55.4-39.3"/>
    <path fill="#DF731B" stroke="#000" stroke-width="4" stroke-linecap="round" stroke-linejoin="round" d="M-52.1 83.5c-9.8 6.7-17 6.3-26.2 8.3-9.4 2-25.8 6.5-27.6 3.9-1.8-2.6 0-33.6 2.7-49.6 1.5-8.9 6-22.3 6.6-29.2"/>
    <path fill="#FFC" d="M-60.5 76c0 5.1-15 7.5-20.9 9.2-5.7 1.6-14.2 4.2-15.3 2.6-1.1-1.5 1.4-21.8 3-31 .9-5.1 2.3-7.9 3.5-11.7.8-2.5 3.3-6.2 4.6-4.2 1.3 2.1 3.8 8.4 11.7 20.4 8 12.2 13.4 13.5 13.4 14.7z"/>
    <g>
      <path fill="#DF731B" stroke="#000" stroke-width="4" stroke-linecap="round" stroke-linejoin="round" d="M53.2 83.5c9.8 6.7 17 6.3 26.2 8.3 9.4 2 25.8 6.5 27.6 3.9 1.8-2.6 0-33.6-2.7-49.6-1.5-8.9-6-22.3-6.6-29.2"/>
      <path fill="#FFC" d="M61.5 76c0 5.1 15 7.5 20.9 9.2 5.7 1.6 14.2 4.2 15.3 2.6 1.1-1.5-1.4-21.8-3-31-.9-5.1-2.3-7.9-3.5-11.7-.8-2.5-3.3-6.2-4.6-4.2-1.3 2.1-3.8 8.4-11.7 20.4C67 73.5 61.5 74.8 61.5 76z"/>
    </g>
    <path fill="none" stroke="#000" stroke-width="4" stroke-linecap="round" stroke-linejoin="round" d="M-39.9-43.2c0-10.9 9.7-19.8 21.6-19.8 8 0 15 4 18.7 9.9C4.2-59 11.2-63 19.2-63c12 0 21.6 8.9 21.6 19.8"/>
    <path fill="#332F20" stroke="#000" stroke-width="4" stroke-linecap="round" stroke-linejoin="round" d="M.5-32.1c13.1 0 17.5-5.3 11.3-14.7-6.2-9.4-16.4-9.4-22.6 0C-17-37.4-12.6-32.1.5-32.1z"/>
    <g fill="none" stroke="#000" stroke-width="3" stroke-linecap="round" stroke-linejoin="round">
      <path d="M-50.2-37.6c-36.2 2.2-50.3-21.1-50.3-21.1M-48-47.4c-31.4-4.5-39.7-26.8-39.7-26.8M-52.4-26.9c-37.1 9.8-58.3-9.9-58.3-9.9"/>
      <g>
        <path d="M51.1-37.6c36.2 2.2 50.3-21.1 50.3-21.1M48.9-47.4c31.4-4.5 39.7-26.8 39.7-26.8M53.3-26.9c37.1 9.8 58.3-9.9 58.3-9.9"/>
      </g>
    </g>
    <g>
      <path d="M-22.3 6.1c0-7-5.6-12.6-12.5-12.6S-47.3-.8-47.3 6.1c0 7 5.6 12.6 12.5 12.6S-22.3 13-22.3 6.1z"/>
      <path fill="#FFF" d="M-36.1 1.5c0-2.7-2-4.8-4.5-4.8s-4.5 2.2-4.5 4.8c0 2.7 2 4.8 4.5 4.8 2.4 0 4.5-2.1 4.5-4.8z"/>
      <g>
        <path d="M48.3 6.1c0-7-5.6-12.6-12.5-12.6S23.3-.8 23.3 6.1c0 7 5.6 12.6 12.5 12.6S48.3 13 48.3 6.1z"/>
        <path fill="#FFF" d="M34.4 1.5c0-2.7-2-4.8-4.5-4.8s-4.5 2.2-4.5 4.8c0 2.7 2 4.8 4.5 4.8s4.5-2.1 4.5-4.8z"/>
      </g>
    </g>
  </symbol>
  <use xlink:href="#d" width="247.4" height="451.7" x="-123.7" y="-225.8" transform="matrix(1 0 0 -1 201.0747 225.8408)" overflow="visible" filter="url(#redGlow)"/>
  <use xlink:href="#e" width="214.3" height="209.1" x="-107.1" y="-104.6" transform="matrix(1 0 0 -1 115.499 411.2231)" overflow="visible"/>
  <use xlink:href="#f" width="231.3" height="199.9" x="-115.6" y="-99.9" transform="matrix(1 0 0 -1 115.6396 295.2793)" overflow="visible"/>
</svg>