<svg xmlns="http://www.w3.org/2000/svg" viewBox="0 43 5203 257">
  <g class="frames">
    <g>
      <text y="280" x="50" fill="blue" font-size="40">1</text>
      <path stroke="#3f403b" stroke-width="12" stroke-linecap="round" fill="none" pointer-events="none" d="M61.4 58.78s-.1-.75-.36-1.1c-.27-.35-.63-.45-1.1-.73-.47-.27-.86-.46-1.46-.73-.59-.26-1.21-.48-1.82-.72-.61-.25-.98-.45-1.82-.73-.84-.29-1.47-.46-2.55-.73-1.09-.28-2.56-.59-3.28-.73-.73-.14-1.46-.24-2.19-.37-.73-.12-1.46-.3-2.19-.36s-1.7 0-2.19 0H39.16c-.61 0-.96-.06-1.82 0-.86.06-1.81.19-2.55.36-.75.18-1.46.49-2.19.73-.73.25-1.69.52-2.19.73-.5.21-.84.39-1.46.73-.62.34-1.41.78-1.82 1.09-.41.32-.73.73-1.09 1.1-.37.36-.7.63-1.1 1.09-.4.46-.7.87-1.09 1.46-.4.59-.7 1.11-1.09 1.82-.4.72-.8 1.48-1.1 2.19-.29.71-.53 1.35-.73 2.19-.2.83-.25 1.82-.36 2.55-.12.73-.29 1.22-.37 2.19-.08.97 0 2.06 0 2.91v2.56c0 1.09-.06 2.42 0 3.28.06.86.09 1.19.37 2.55.28 1.36.59 2.63 1.09 4.01.5 1.38 1.22 2.67 1.82 4.01.61 1.34 1.21 2.97 1.83 4.01.62 1.05 1.44 2.19 2.18 2.92.75.73 1.84 1.32 2.56 1.82s1.35.94 2.18 1.46c.84.51 1.5.99 2.56 1.46 1.05.47 2.2.86 3.28 1.09 1.07.24 1.81.16 3.28.37 1.46.2 2.8.53 4.37.73 1.58.19 3.29.3 4.74.36 1.46.06 3.28.06 4.38 0s2.24-.06 3.28-.36c1.04-.31 1.94-.98 2.92-1.46.97-.49 1.88-.82 2.91-1.46 1.04-.64 2.05-1.49 2.92-2.19.87-.7 1.8-1.49 2.55-2.19.76-.7 1.43-1.36 2.19-2.18.76-.83 1.66-1.66 2.19-2.56.53-.89.76-2.17 1.09-2.91.33-.75.71-1.35 1.09-2.19.39-.84.8-1.72 1.1-2.55.29-.84.55-1.71.73-2.55.18-.84.17-1.57.36-2.56.19-.98.64-2.19.73-2.91.09-.73-.06-1.33 0-2.19.06-.86.32-1.95.37-2.55.04-.61.06-1.21 0-1.83-.07-.61-.25-1.21-.37-1.82-.12-.61-.25-1.33-.36-1.82-.11-.49-.23-.86-.37-1.46-.13-.6-.19-1.31-.36-1.82-.18-.52-.51-1.08-.73-1.46-.22-.38-.56-.75-.73-1.09-.17-.35-.09-.66-.37-1.1-.27-.44-.65-.77-1.09-1.09-.44-.32-1.21-.61-1.46-.73-.24-.12-.26-.19-.73-.37-.47-.17-.6-.13-1.46-.36-.85-.23-2.07-.66-2.55-.73-.48-.07-.97 0-1.46 0H63.95c-.36 0-.71.06-1.09 0-.38-.06-.49-.27-1.09-.36-.6-.1-1.83 0-1.83 0M36.24 108.72s-.65.1-1.09.37c-.44.27-.61.61-1.09 1.09-.49.49-1 1.06-1.46 1.46-.46.4-.84.62-1.46 1.1-.61.47-1.24 1.05-1.82 1.45-.58.41-1.19.65-1.83 1.1-.63.44-1.08.86-1.82 1.46-.73.6-1.46 1.21-2.19 1.82-.72.61-1.48 1.3-2.18 1.82-.71.53-1.3.78-2.19 1.46-.89.68-1.75 1.62-2.55 2.19-.8.56-1.6.73-2.55 1.46-.96.73-1.66 1.83-2.56 2.55-.89.71-2.01 1.16-2.91 1.82-.91.66-1.76 1.4-2.56 2.19-.79.79-1.51 1.88-2.18 2.55-.68.67-1.46 1.22-2.19 1.82-.73.61-1.73 1.29-2.19 1.83-.46.53-.69 1.45-1.09 1.82-.4.37-1.13.44-1.46.73-.33.29-.29.56-.73 1.09s-1.3 1.24-1.46 1.46c-.16.22-.14.35-.36.73-.22.38-.66.44-.73 1.09-.07.65.13.77.73 1.83.59 1.06 1.47 1.76 2.19 2.91.71 1.16 1.31 2.57 1.82 3.65s1.06 2.32 1.46 3.28c.39.96.66 1.92 1.09 2.92.43.99 1.23 2.21 1.46 2.91.23.71.24 1.46.36 2.19s.27 1.7.37 2.19c.1.49.36 1.46.36 1.46M55.2 110.55s.16.59.37 1.09c.21.5.36.73.73 1.46.36.73.73 1.46 1.09 2.19.37.73.71 1.35 1.09 2.18.39.84.47 1.4 1.1 2.56.62 1.15 1.48 2.29 2.19 3.28.7.99 1.42 1.84 2.18 2.91.76 1.08 1.57 2.32 2.19 3.29.62.96 1.16 2.01 1.82 2.91.67.91 1.31 1.48 2.19 2.55.88 1.08 1.7 2.19 2.55 3.29.85 1.09 1.51 2.02 2.56 3.28 1.04 1.25 2.18 2.43 3.28 3.64 1.09 1.22 2.24 2.36 3.28 3.65 1.04 1.28 2.13 3.09 2.91 4.01.79.91 1.84 1.65 2.56 2.55.71.9 1.09 2.07 1.82 2.92.73.85 2.01 1.63 2.55 2.19s1.02 1.13 1.46 1.82c.44.69.7 1.72 1.09 2.19.39.46 1.06.57 1.46 1.09.4.52.45 1.39.73 1.82.28.43.61.61 1.09 1.1.49.48 1.1 1.09 1.46 1.45.37.37.7.64 1.1 1.1.4.46.8.99 1.09 1.46.29.46.33.9.73 1.46.4.55 1.22 1.21 1.46 1.45.24.25.33.27.73.73.4.46 1.09 1.46 1.09 1.46M43.9 110.55s.3 1.58.37 2.55c.06.97 0 1.58 0 2.92v28.07c0 .97-.07 1.94 0 2.92.06.97.29 1.82.36 2.91s-.06 2.19 0 3.28c.06 1.1.18 2.18.36 3.29.19 1.1.58 2.43.73 3.28.16.84.24 1.58.37 2.55.13.97.25 2.06.36 2.92.12.85.32 1.82.37 2.55.05.72-.13 1.43 0 2.18.12.76.57 1.59.73 2.19.16.6.29 1.1.36 1.83.07.72-.06 1.69 0 2.18.06.5.31.98.37 1.46s-.07.96 0 1.46c.06.5.29.85.36 1.46.07.6 0 1.46 0 1.82V190.76M50.83 192.94s.62.31 1.82.73c1.2.42 2.05.55 3.65 1.1 1.6.54 2.94 1.24 4.74 1.82 1.79.58 3.51.89 5.47 1.46 1.95.56 4.12 1.25 5.83 1.82 1.71.57 3.76 1.34 5.1 1.82 1.34.49 2.79 1 4.01 1.46 1.23.47 2.68 1.09 3.65 1.46.97.38 2.06.75 2.92 1.09.85.35 1.94.85 2.55 1.1.6.25 1.32.5 1.82.73.5.22.75.43 1.46.73.71.29 1.82.6 2.19.73.36.12.8.18 1.09.36.29.18.55-.02.73.73.18.75-.34 1.4-.73 2.19-.38.78-.94 1.35-1.46 2.18-.51.84-.87 1.57-1.46 2.56-.58.98-1.26 2.14-1.82 2.91s-1.41 1.61-1.82 2.19c-.41.58-.83 1.35-1.1 1.82-.26.48-.41.94-.73 1.46-.31.52-.8 1-1.09 1.46-.28.46-.41.94-.73 1.46-.32.51-.77.89-1.09 1.46-.32.57-.51 1.32-.73 1.82-.22.5-.46.86-.73 1.46-.27.59-.43 1.29-.73 1.82s-.77.89-1.09 1.46c-.32.57-.54 1.53-.73 1.82-.19.29-.45.39-.73.73-.28.34-.4.7-.73 1.09-.33.4-.85.66-1.09 1.1-.25.43-.37 1.46-.37 1.46M44.63 194.77s-.25 1.28-1.09 3.64c-.85 2.36-1.74 4.24-2.92 6.93-1.18 2.69-2.4 5.54-3.65 8.02-1.24 2.48-2.72 5.07-4.01 7.29-1.28 2.22-2.8 4.61-4.01 6.56-1.2 1.95-2.77 4.39-3.64 5.84-.88 1.44-1.88 3.36-2.55 4.37-.68 1.02-1.76 2.23-2.19 2.92-.43.69-.83 1.59-1.1 2.19-.26.59-.48 1.21-.73 1.82-.24.61-.41 1.19-.72 1.82-.32.64-.73 1.22-1.1 1.83-.36.6-.62 1.08-1.09 1.82-.47.74-1.22 1.82-1.46 2.19-.24.36-.46.62-.73 1.09-.27.47-.55.99-.73 1.46-.17.47-.17.95-.36 1.46-.19.51-.49.97-.73 1.45-.25.49-.56.99-.73 1.46-.18.47-.19 1.06-.37 1.46-.17.4-.59.86-.73 1.1-.13.23-.13.02-.36.72-.23.71-.13 1.63-.36 2.19-.24.56-.78.89-1.1 1.46-.32.57-.62 1.58-.73 1.82-.11.25-.36.73-.36.73"/>
      <circle r="6" cx="61.401" cy="71.902" fill="#3f403b" pointer-events="none"/>
    </g>
    <g transform="translate(473)">
      <text y="280" x="50" fill="blue" font-size="40">2</text>
      <path stroke="#3f403b" stroke-width="12" stroke-linecap="round" fill="none" pointer-events="none" d="M111.35 55.5s-.5-.21-1.09-.37c-.6-.16-1.22-.3-1.83-.36-.6-.06-.97 0-1.82 0h-6.93c-.73 0-1.45-.06-2.19 0-.73.06-1.55.18-2.18.36-.63.18-1.1.47-1.83.73-.72.26-1.58.57-2.18.73-.6.16-1.08.17-1.83.36-.74.2-1.43.42-2.18.73-.76.32-1.57.76-2.19 1.1-.62.34-1.19.65-1.82 1.09-.64.44-1.09.86-1.83 1.46-.73.6-1.64 1.27-2.18 1.82-.55.56-.98 1.22-1.46 1.82-.49.61-.91 1.02-1.46 1.83-.55.81-1.05 1.72-1.46 2.55-.41.83-.82 1.83-1.09 2.55-.28.72-.49 1.46-.73 2.19-.25.73-.63 1.59-.73 2.19-.1.6 0 .85 0 1.82v7.66c0 .85-.12 1.79 0 2.55.12.76.42 1.43.73 2.19.31.75.73 1.45 1.09 2.18.37.73.48 1.26 1.1 2.19.62.93 1.3 1.72 2.18 2.55.89.83 1.87 1.51 2.92 2.19 1.05.68 2.4 1.26 3.28 1.82.88.56 1.57 1.11 2.55 1.83.98.71 1.87 1.5 2.92 2.18 1.05.68 2.08 1.19 3.28 1.83 1.2.63 2.82 1.5 3.65 1.82.82.32 1.47.52 2.55.73 1.08.21 2.07.23 3.28.36 1.21.13 2.31.3 3.65.37 1.33.06 2.63.18 4.01 0 1.37-.19 2.74-.61 4.01-1.1 1.27-.48 2.16-1.02 3.64-1.82 1.49-.8 3.33-1.8 4.38-2.55 1.05-.76 1.99-1.87 2.91-2.55.92-.69 1.88-1.06 2.92-1.83s2.29-1.96 2.92-2.55c.62-.59 1.38-1.26 1.82-1.82.44-.56.81-1.01 1.09-1.82.29-.81.19-1.81.37-2.56.18-.74.53-1.35.73-2.18.2-.84.3-1.71.36-2.56.06-.84 0-1.7 0-2.55 0-.85.06-1.57 0-2.55-.06-.98-.26-2.18-.36-2.92-.11-.73-.18-1.44-.37-2.18-.18-.75-.53-1.36-.73-2.19-.19-.84-.18-1.81-.36-2.55-.18-.75-.5-1.58-.73-2.19-.22-.62-.55-1.23-.73-1.82-.18-.6-.11-1.17-.36-1.83-.26-.66-.86-1.45-1.1-1.82-.23-.37-.27-.47-.73-1.09-.46-.63-1.02-1.4-1.45-1.83-.44-.42-1-.8-1.46-1.09-.47-.29-.84-.39-1.46-.73-.62-.34-1.13-.77-1.82-1.09-.7-.32-1.33-.4-2.19-.73-.87-.33-1.68-.66-2.55-1.1-.88-.43-1.98-1.24-2.56-1.45-.58-.22-1.33-.26-1.82-.37-.49-.11-1.1-.32-1.46-.36-.36-.05-.36 0-1.09 0h-2.19M99.68 112.01v2.91c0 .61-.06 1.21 0 1.83.06.61.25 1.21.37 1.82.12.61.31 1.34.36 1.82.05.49-.06.6 0 1.46s.32 1.95.37 2.55c.04.61-.06.97 0 1.82.06.86.25 1.83.36 2.56.11.73.21 1.09.37 2.18.15 1.09.32 2.56.36 3.29.04.72-.06 1.33 0 2.18.06.86.25 1.82.36 2.56.12.73.25 1.45.37 2.18.12.73.3 1.46.36 2.19s0 1.46 0 2.19V149.19c0 .49.06.96 0 1.46s-.25 1.09-.36 1.46c-.11.37-.29.61-.37 1.09-.07.48 0 .98 0 1.46 0 .49.07 1.08 0 1.46-.06.38-.28.61-.36 1.09-.08.48 0 .98 0 1.46 0 .49.06.84 0 1.46s-.3 1.22-.36 1.82c-.06.61.06 1.21 0 1.83-.07.61-.24 1.09-.37 1.82s-.31 1.58-.36 2.19c-.05.6.06 1.32 0 1.82-.07.5-.23.85-.37 1.46-.13.6-.32 1.34-.36 1.82-.05.49 0 .85 0 1.46s.06 1.44 0 1.82c-.06.38-.19.38-.37 1.1-.18.71-.31 1.58-.36 2.18-.05.61 0 1.34 0 1.83v5.1"/>
      <path stroke="#3f403b" stroke-width="12" stroke-linecap="round" fill="none" pointer-events="none" d="M99.68 119.3s-.08.69-.36 1.46c-.29.76-.83 1.59-1.1 2.18-.26.6-.48 1.22-.73 1.83-.24.6-.39 1.08-.72 1.82-.34.74-.78 1.36-1.1 2.19-.32.82-.42 1.68-.73 2.55-.31.87-.79 1.72-1.09 2.55-.3.83-.4 1.57-.73 2.55-.33.99-.73 1.95-1.09 2.92-.37.97-.75 2.06-1.1 2.92-.34.86-.77 1.6-1.09 2.55-.32.95-.53 2.29-.73 2.92-.2.62-.55 1.22-.73 1.82-.18.59-.25 1.33-.36 1.82-.11.49-.18.95-.37 1.46s-.62.98-.73 1.46c-.11.47.06 1.08 0 1.46-.06.38-.15.59-.36 1.09-.21.5-.56.99-.73 1.46-.18.47-.19 1.06-.37 1.46-.17.4-.52.63-.73 1.09-.2.46-.18 1.06-.36 1.46-.18.4-.53.63-.73 1.09-.2.46-.26 1.09-.36 1.46-.11.37-.16.59-.37 1.09-.21.51-.51 1.08-.73 1.46-.22.38-.56.75-.73 1.1-.17.34-.48.59-.36 1.09.12.5.33.58 1.09 1.09.77.52 1.36.66 2.55 1.1 1.2.43 2.41.66 3.65 1.09 1.24.43 2.41.9 3.65 1.46 1.24.56 2.61 1.18 3.64 1.82 1.04.64 1.99 1.62 2.92 2.19.92.57 2.02.92 2.92 1.46.89.54 1.8 1.24 2.55 1.82.75.58 1.46 1.22 2.18 1.82.73.61 1.26 1.15 2.19 1.83.93.67 2.05 1.24 2.92 1.82.87.58 1.83 1.33 2.55 1.82.72.5 1.69 1.11 2.19 1.46.49.35 1.1.84 1.46 1.1.35.25.46.27 1.09.72.63.46 1.34 1.09 1.82 1.46.48.37 1.2.87 1.46 1.1.26.22.24.24.73.73.49.48 1.13 1.25 1.46 1.45.33.21.8.19 1.09.37.3.18.57.51.73.73.16.22.37.73.37.73"/>
      <path stroke="#3f403b" stroke-width="12" stroke-linecap="round" fill="none" pointer-events="none" d="M102.23 120.03s-.77-.13-1.09 0c-.32.13-.53.4-.73.73-.2.32-.18.8-.36 1.09-.18.29-.57.51-.73.73-.16.22-.26.25-.37.73-.11.47.13.81 0 1.46-.12.64-.46 1.1-.73 1.82-.26.72-.5 1.57-.73 2.19-.22.61-.46 1.1-.72 1.82-.27.72-.42 1.43-.73 2.19-.32.75-.83 1.59-1.1 2.18-.27.6-.44.99-.73 1.83-.28.83-.43 1.79-.73 2.55-.29.76-.77 1.36-1.09 2.19-.32.82-.43 1.79-.73 2.55-.29.76-.7 1.35-1.09 2.19-.39.84-.73 1.7-1.1 2.55-.36.85-.7 1.59-1.09 2.55-.39.96-.73 1.95-1.09 2.92-.37.97-.75 2.06-1.1 2.91-.34.86-.61 1.46-1.09 2.56-.48 1.09-1.07 2.32-1.46 3.28-.39.96-.75 2.06-1.09 2.91-.35.86-.75 1.82-1.1 2.56-.34.74-.7 1.34-1.09 2.18-.39.84-.75 1.82-1.09 2.56-.35.74-.8 1.47-1.1 2.18-.29.71-.52 1.69-.73 2.19-.21.5-.39.84-.73 1.46-.34.62-.8 1.24-1.09 1.82-.29.59-.41 1.19-.73 1.83-.31.63-.9 1.36-1.09 1.82-.19.46-.17.83-.37 1.46-.2.62-.5 1.32-.73 1.82-.22.5-.51 1.08-.73 1.46-.22.38-.49.52-.73 1.09-.23.57-.2 1.52-.36 1.82-.16.31-.45.39-.73.73-.28.34-.56.75-.73 1.1-.17.34-.3.73-.36 1.09-.06.36 0 1.09 0 1.09M98.59 189.66s-.05.97.36 1.83c.41.85 1.27 1.38 1.83 2.18.55.81.91 1.78 1.45 2.55.55.78 1.19 1.36 1.83 2.19.64.83 1.29 1.73 1.82 2.55.53.83 1.05 1.73 1.46 2.56.41.82.56 1.53 1.09 2.55.53 1.01 1.37 1.98 1.83 2.92.46.93.67 2.02 1.09 2.91.42.89 1.04 1.73 1.46 2.55.41.83.75 1.82 1.09 2.56.34.74.63 1.32 1.09 2.18.47.87.98 1.7 1.46 2.56.49.85 1 1.8 1.46 2.55.46.74.91 1.25 1.46 2.19.55.94 1 2.05 1.46 2.91.46.87 1.07 1.84 1.46 2.55.38.72.6 1.22 1.09 2.19.49.97 1.09 2.19 1.46 2.92.36.73.73 1.46 1.09 2.19.37.72.73 1.45 1.1 2.18.36.73.73 1.46 1.09 2.19.36.73.65 1.43 1.09 2.19.44.76 1.11 1.69 1.46 2.19.35.49.81.99 1.1 1.45.28.47.43 1.13.72 1.46.29.33.87.43 1.1.73.23.31.08.56.36 1.1.29.53.76 1.06 1.1 1.45.33.39.69.64 1.09 1.1.4.46.81.99 1.09 1.46.29.46.41.94.73 1.45.32.52.84 1.1 1.1 1.46.25.36.38.6.73 1.1.35.49.84 1.1 1.09 1.45.25.36.38.6.73 1.1.35.49.91 1.12 1.09 1.46.18.34.19.8.37 1.09.18.29.52.4.73.73.2.33.24.73.36 1.09.12.37.37 1.1.37 1.1M95.67 193.67s-.06.84 0 1.46.18 1.2.37 1.82c.18.63.41 1.19.73 1.83.31.63.8 1.23 1.09 1.82.29.59.41 1.19.73 1.82.31.64.77 1.13 1.09 1.83.32.69.4 1.32.73 2.18.33.87.82 1.84 1.1 2.56.27.71.41 1.43.72 2.18.32.76.83 1.59 1.1 2.19.27.6.41 1.19.73 1.82.31.64.87 1.25 1.09 1.83.22.57.18 1.19.37 1.82.18.63.46 1.1.72 1.82.27.72.42 1.44.73 2.19.32.75.73 1.46 1.1 2.19.36.73.86 1.48 1.09 2.18.23.71.17 1.33.37 2.19.19.86.58 1.95.73 2.55.14.61.26 1.46.36 1.83.1.37.31.73.36 1.09.06.36 0 .61 0 1.09 0 .49.07 1.2 0 1.46-.06.27.12.21-.36.73s-.98.6-1.82 1.1c-.85.49-1.5.98-2.56 1.45-1.05.47-2.31.82-3.28 1.1-.96.28-2 .36-2.91.73-.91.36-1.51 1.05-2.56 1.46-1.04.4-2.4.44-3.28.72-.88.29-1.7.73-2.55 1.1-.85.36-1.7.73-2.55 1.09-.85.37-1.57.64-2.55 1.1-.99.45-1.97 1.04-2.92 1.45-.95.42-2.17.77-2.92 1.1-.74.32-1.67.77-2.18 1.09-.52.32-1.12.92-1.46 1.1-.34.17-.75.09-1.1.36-.34.27-.41.78-.72 1.09-.31.31-.83.51-1.1.73-.26.22-.73.73-.73.73"/>
      <circle r="6" cx="117.912" cy="74.089" fill="#3f403b" pointer-events="none"/>
    </g>
    <g transform="translate(946)">
      <text y="280" x="50" fill="blue" font-size="40">3</text>
      <path stroke="#3f403b" stroke-width="12" stroke-linecap="round" fill="none" pointer-events="none" d="M175.52 54.04h-3.65c-.73 0-1.31-.13-2.19 0-.87.12-1.35.56-2.55.73-1.2.17-2.65-.13-3.65 0-.99.12-2.07.56-2.91.73-.85.16-1.81.18-2.55.36-.75.18-1.46.49-2.19.73s-1.55.43-2.19.73c-.64.29-1.21.73-1.82 1.09-.61.37-1.19.65-1.83 1.1-.63.44-1.27.9-1.82 1.45-.55.55-.88 1.19-1.46 1.83-.57.64-1.26 1.14-1.82 1.82-.55.68-.94 1.35-1.46 2.19-.51.83-1.11 1.73-1.46 2.55-.34.82-.43 1.79-.73 2.55-.29.76-.7 1.35-1.09 2.19-.39.84-.8 1.72-1.09 2.55-.3.84-.54 1.59-.73 2.55-.2.96-.17 1.7-.37 2.92-.19 1.22-.51 2.67-.73 3.65-.22.97-.59 1.83-.72 2.91-.14 1.09 0 2.07 0 3.28 0 1.22-.13 2.54 0 3.65.12 1.11.43 2.29.72 3.28.3 1 .77 2.17 1.1 2.92.32.74.67 1.53 1.09 2.19.42.65.97 1.21 1.46 1.82l1.46 1.82c.48.61.79 1.15 1.46 1.82.66.68 1.38 1.27 2.18 1.83.81.56 1.64.81 2.56 1.46.91.64 1.6 1.42 2.55 2.18.95.76 2 1.69 2.92 2.19.91.5 1.8.64 2.91 1.09 1.11.46 2.22 1.11 3.28 1.46 1.07.35 1.83.45 3.28.73 1.46.28 2.81.54 4.38.73 1.57.19 3.16.3 4.74.37 1.58.06 3.16 0 4.74 0s3.02.12 4.74 0c1.71-.13 3.43-.24 5.1-.73 1.67-.5 3.24-1.41 4.74-2.19s3.23-1.78 4.38-2.55c1.14-.78 2.17-1.46 3.28-2.56 1.11-1.09 2.03-2.45 2.91-3.64.89-1.19 1.76-2.15 2.56-3.65.79-1.49 1.35-3.19 1.82-4.74.47-1.55.79-3.17 1.09-4.74.31-1.57.55-3.16.73-4.74.18-1.57.32-3.52.37-4.74.04-1.21.12-1.93 0-3.64-.12-1.72-.39-3.73-.73-5.11-.35-1.38-.99-2.78-1.46-4.01-.47-1.22-.83-2.37-1.46-3.64s-1.35-2.3-2.19-3.65c-.83-1.35-1.77-2.97-2.55-4.01-.77-1.03-1.85-2.16-2.55-2.91-.7-.76-1.39-1.52-2.19-2.19-.8-.68-1.51-1.23-2.55-1.83-1.04-.59-2.32-1.06-3.28-1.45-.96-.4-.86-.35-2.92-1.1-2.06-.75-5-1.92-6.2-2.18-1.19-.27-2.51-.13-3.64-.37-1.13-.24-1.85-.74-3.28-1.09-1.44-.36-4.38-.73-4.38-.73M171.51 126.22v1.83c0 .48-.07.96 0 1.46.06.49.22.85.36 1.45.14.61.23 1.1.36 1.83.14.72.25 1.46.37 2.18.12.73.3 1.47.36 2.19.06.73-.12 1.43 0 2.19.13.76.64 1.59.73 2.19.1.6-.06 1.08 0 1.82s.31 1.46.37 2.19c.06.72-.06 1.33 0 2.19.06.85.25 1.82.36 2.55.11.73.24 1.46.37 2.18.12.73.3 1.47.36 2.19.06.73-.06 1.33 0 2.19.06.86.32 1.95.37 2.55.04.61 0 1.22 0 1.82v5.11c0 .49.06.96 0 1.46-.07.49-.32 1.09-.37 1.46-.04.36.06.71 0 1.09-.06.38-.31.73-.36 1.09-.06.36 0 .61 0 1.1v1.46c0 .36.06.71 0 1.09-.07.38-.27.49-.37 1.09-.1.6.06 1.56 0 1.83-.06.26-.28.37-.36.72-.09.36 0 .61 0 1.1v2.92"/>
      <circle r="6" cx="174.057" cy="188.204" fill="#3f403b" pointer-events="none"/>
      <circle r="6" cx="174.057" cy="188.204" fill="#3f403b" pointer-events="none"/>
      <path stroke="#3f403b" stroke-width="12" stroke-linecap="round" fill="none" pointer-events="none" d="M173.69 187.11s.73.49 1.1.73c.36.24.69.4 1.09.73.4.33.76.81 1.09 1.09.34.28.52.21 1.1.73.57.53 1.13 1.53 1.46 1.82.32.3.56.3 1.09.73.53.44 1.22 1.22 1.46 1.46l.73.73c.48.49.97.97 1.46 1.46.48.49 1.09 1.09 1.45 1.46.37.36.61.61 1.1 1.09.48.49.97.97 1.46 1.46.48.49.85.85 1.45 1.46.61.61 1.27 1.38 1.83 1.82.56.44 1.18.65 1.82 1.09.64.45 1.44 1.12 1.82 1.46.39.35.55.74 1.1 1.1.54.36 1.56.45 1.82.73.26.28.01.6.36 1.09.36.49 1.2.87 1.46 1.09.26.23.17.3.73.73.56.44 1.32.76 1.82 1.1.51.34 1.11.84 1.46 1.09.36.25.83.51 1.1.73.26.22.4.53.73.73.32.2.8.18 1.09.36.29.18.39.45.73.73.34.28.62.46 1.09.73.47.27 1.21.32 1.46.73.26.41.12.7 0 1.46s-.43 1.54-.73 2.19c-.29.64-.8 1.23-1.09 1.82-.29.59-.47 1.1-.73 1.82-.27.72-.51 1.58-.73 2.19-.23.61-.41 1.19-.73 1.82-.31.64-.77 1.13-1.09 1.83-.32.69-.51 1.57-.73 2.18-.23.62-.4 1.08-.73 1.83-.34.74-.83 1.59-1.1 2.18-.26.6-.41 1.19-.72 1.83-.32.63-.81 1.23-1.1 1.82-.29.59-.6 1.46-.73 1.82-.13.36-.22.61-.36 1.1-.14.48-.19 1.05-.37 1.45-.17.41-.56.75-.73 1.1-.16.34-.22.61-.36 1.09-.14.48-.08.7-.36 1.46-.29.76-1.1 2.19-1.1 2.19M172.96 193.31s-.1 1.05-.36 1.82c-.27.77-.65 1.12-1.09 2.19-.45 1.06-.65 2.05-1.1 3.28-.45 1.23-.99 2.54-1.46 3.65-.46 1.1-.95 2.07-1.46 3.28-.5 1.2-1.08 2.67-1.45 3.64-.38.97-.66 1.92-1.1 2.92-.43 1-1.01 1.85-1.46 2.92-.44 1.06-.74 2.3-1.09 3.28-.35.98-.73 1.94-1.09 2.91-.37.98-.82 2.08-1.1 2.92-.27.84-.35 1.65-.73 2.55-.38.91-1.14 1.85-1.45 2.55-.32.71-.42 1.44-.73 2.19-.32.76-.83 1.59-1.1 2.19-.27.6-.39 1.08-.73 1.82-.33.75-.77 1.37-1.09 2.19-.32.82-.43 1.79-.73 2.55-.29.76-.73 1.46-1.09 2.19-.37.73-.63 1.32-1.1 2.19-.46.86-.99 1.8-1.46 2.55-.46.74-1.07 1.59-1.45 2.19-.38.6-.67 1.28-1.1 1.82-.42.54-1.02.9-1.46 1.46-.43.56-.65 1.18-1.09 1.82-.44.64-1.05 1.24-1.46 1.82-.4.59-.8 1.24-1.09 1.83-.29.58-.51 1.32-.73 1.82-.22.5-.53 1.18-.73 1.46-.2.28-.44.18-.73.73-.29.54-.2 1.42-.36 1.82-.17.41-.49.73-.73 1.09-.25.37-.6.86-.73 1.1-.14.23-.37.73-.37.73M167.86 127.32s-.68.01-1.09.36c-.41.36-.39.84-.73 1.46-.34.62-.63 1.08-1.1 1.82-.47.74-.89 1.43-1.46 2.19-.56.76-1.26 1.38-1.82 2.19-.56.8-.79 1.54-1.46 2.55-.66 1.02-1.6 2.17-2.18 2.92-.59.74-1.27 1.38-1.83 2.19-.56.8-.99 1.8-1.46 2.55-.46.74-.99 1.56-1.45 2.19-.46.62-1.06 1.24-1.46 1.82-.41.58-.63 1.08-1.1 1.82-.46.74-1 1.56-1.45 2.19-.46.63-1.06 1.24-1.46 1.82-.41.58-.65 1.19-1.1 1.82-.44.64-1.2 1.47-1.45 1.83-.26.35-.52.83-.73 1.09-.22.27-.69.29-.73.73-.05.44.4.7.73 1.09.32.4.73.73 1.09 1.1.36.36.49.48 1.09 1.09.61.61 1.39 1.27 1.83 1.82.43.56.67 1.29 1.09 1.83.42.54.94.88 1.46 1.46s1.05 1.24 1.46 1.82c.4.58.77 1.12 1.09 1.82.32.7.43 1.55.73 2.19.3.64.77 1.12 1.09 1.82.32.7.51 1.57.73 2.19.23.61.6 1.46.73 1.82.13.36.24.73.37 1.1.12.36.24.73.36 1.09.12.36.24.73.37 1.09.12.37.36 1.1.36 1.1M175.15 130.96s.79.18 1.82 1.1c1.04.92 1.53 2.12 2.56 3.28 1.02 1.16 1.67 1.61 3.28 3.28 1.61 1.67 3.33 3.46 4.74 5.1 1.4 1.65 2.61 3.47 4.01 5.11 1.39 1.64 3.21 3.34 4.37 4.74 1.17 1.4 2.33 3.14 3.28 4.37.96 1.23 2 2.36 2.92 3.65.92 1.29 1.73 2.78 2.55 4.01.83 1.23 1.84 2.66 2.55 3.65.72.98 1.49 2.04 2.19 2.91.7.88 1.51 1.63 2.19 2.55.68.93 1.27 2.15 1.82 2.92.56.77 1.25 1.55 1.83 2.19.57.63 1.54 1.48 1.82 1.82.28.34.51.83.73 1.1.22.26.33.27.73.72.39.46 1.09 1.46 1.09 1.46"/>
      <circle r="6" cx="190.464" cy="75.548" fill="#3f403b" pointer-events="none"/>
    </g>
    <g transform="translate(1419)">
      <text y="280" x="50" fill="blue" font-size="40">4</text>
      <path stroke="#3f403b" stroke-width="12" stroke-linecap="round" fill="none" pointer-events="none" d="M253.54 53.67h-1.83c-.48 0-1.08-.06-1.45 0-.38.06-.5.27-1.1.37-.6.09-1.2-.06-1.82 0-.62.06-.85.14-1.82.36-.98.22-2.2.58-2.92.73-.72.15-1.3.11-2.19.37-.89.26-1.95.84-2.55 1.09-.61.25-1.33.51-1.82.73-.5.22-.81.31-1.46.73-.66.42-1.22.97-1.82 1.46-.61.48-1.22.97-1.83 1.45-.61.49-1.31 1-1.82 1.46-.51.46-.78.91-1.46 1.46-.68.56-1.7.95-2.19 1.46s-.65 1.18-1.09 1.82c-.44.64-.97 1.22-1.46 1.83-.48.6-.98 1.02-1.46 1.82-.47.79-.65 1.67-1.09 2.55-.44.88-1.02 1.61-1.46 2.55-.44.94-.88 2.09-1.09 2.92-.22.83-.25 1.82-.37 2.55-.11.73-.31 1.58-.36 2.19-.05.6-.06.96 0 1.82.06.86.11 1.66.36 2.55.25.89.71 1.59 1.1 2.56.38.96.78 2.27 1.09 2.91.31.64.63 1.08 1.09 1.83.47.74 1 1.55 1.46 2.18.46.63.86 1.09 1.46 1.83.6.73 1.04 1.39 1.82 2.18.79.8 1.7 1.46 2.56 2.19.85.73 1.67 1.37 2.55 2.19.88.82 1.65 1.84 2.55 2.55.9.71 1.78 1.03 2.92 1.82 1.13.8 2.13 1.83 3.28 2.56 1.15.72 2.34 1.26 3.64 1.82 1.31.56 2.56.95 4.01 1.46 1.46.5 2.83 1.14 4.38 1.45 1.55.32 2.91.18 4.74.37s4.25.65 5.47.73c1.21.08 2.18.06 3.64 0 1.47-.06 3.1-.07 4.38-.37 1.27-.3 2.27-.81 3.64-1.45 1.38-.65 2.78-1.49 4.01-2.19 1.23-.71 2.64-1.51 3.65-2.19 1.01-.68 2.31-1.55 2.92-2.19.6-.63 1.08-1.38 1.46-2.18.37-.81.33-1.54.72-2.56.4-1.01 1.05-1.96 1.46-2.91.42-.95.8-1.96 1.1-2.92.29-.96.48-1.94.73-2.92.24-.97.61-1.95.72-2.91.12-.97 0-2.07 0-2.92 0-.85.19-1.53 0-2.55-.18-1.02-.72-1.95-1.09-2.92-.36-.97-.75-2.06-1.09-2.92-.35-.85-.75-1.81-1.1-2.55-.34-.74-.73-1.46-1.09-2.18-.36-.73-.73-1.46-1.09-2.19-.37-.73-.68-1.53-1.1-2.19-.42-.66-1.02-1.14-1.46-1.82-.44-.69-.65-1.43-1.09-2.19-.44-.76-1-1.56-1.46-2.19-.46-.63-1.16-1.36-1.46-1.82-.29-.46-.24-.85-.73-1.46-.48-.6-1.4-1.02-1.82-1.46-.42-.43-.66-1.03-1.09-1.46-.43-.43-.97-.72-1.46-1.09-.49-.36-.97-.73-1.46-1.09-.49-.37-.99-.81-1.46-1.1-.46-.28-.75-.43-1.46-.73-.71-.29-1.45-.48-2.18-.73-.73-.24-1.71-.58-2.19-.72s-.74-.22-1.46-.37-1.46-.3-2.19-.36c-.72-.06-1.58 0-2.18 0h-2.92M253.9 120.03s.06.96 0 1.46c-.06.49-.29.85-.36 1.45-.08.61.06 1.33 0 1.83-.06.49-.28.73-.37 1.45-.09.73 0 1.58 0 2.19v8.39c0 .73.06 1.33 0 2.19-.06.85-.31 1.82-.36 2.55-.05.72.06 1.45 0 2.18-.06.74-.25 1.46-.37 2.19s-.3 1.46-.36 2.19 0 1.46 0 2.19V176.9c0 .49-.06 1.08 0 1.46.06.38.27.49.36 1.09.1.6 0 1.46 0 1.83v1.09M248.07 123.31s-.53.4-.73.73c-.2.32-.16.59-.37 1.09-.2.5-.46.86-.73 1.46-.26.6-.48 1.21-.72 1.82-.25.61-.58 1.35-.73 1.83-.16.47-.22.73-.37 1.45-.15.73-.25 1.58-.36 2.19-.11.61-.09.94-.37 1.82-.27.89-.86 1.73-1.09 2.56-.23.82-.11 1.54-.37 2.55-.25 1-.81 2.07-1.09 2.91-.28.85-.42 1.68-.73 2.56-.31.87-.82 1.83-1.09 2.55-.28.72-.4 1.32-.73 2.19-.33.86-.78 1.6-1.1 2.55-.32.95-.43 2.04-.72 2.92-.3.87-.76 1.81-1.1 2.55-.34.74-.84 1.36-1.09 2.18-.26.83-.12 1.67-.37 2.56-.25.89-.82 1.83-1.09 2.55-.27.72-.43 1.54-.73 2.19-.3.64-.7 1.1-1.09 1.82-.4.71-.85 1.7-1.1 2.19-.24.48-.46.86-.73 1.46-.26.59-.59 1.46-.73 1.82-.13.36-.24.73-.36 1.09-.12.37-.14.48-.36 1.1-.23.61-.6 1.46-.73 1.82-.14.36-.18.7-.37 1.09-.19.4-.56.75-.73 1.1-.17.34-.15.59-.36 1.09-.21.5-.65 1.1-.73 1.46-.08.35.06.71 0 1.09-.06.38-.24.73-.37 1.1-.12.36-.14.47-.36 1.09-.23.61-.73 1.82-.73 1.82"/>
      <path stroke="#3f403b" stroke-width="12" stroke-linecap="round" fill="none" pointer-events="none" d="M249.53 129.14s-.24 1.34-.37 2.19c-.13.85-.15 1.21-.36 2.55-.22 1.34-.55 2.68-.73 4.01-.18 1.33-.17 2.43-.37 4.01-.19 1.59-.49 3.28-.73 4.74-.23 1.46-.48 2.92-.73 4.38-.24 1.45-.51 3.27-.72 4.37-.22 1.1-.54 2.08-.73 3.28-.2 1.21-.2 2.66-.37 3.65-.17.99-.47 1.82-.73 2.92-.25 1.09-.51 2.42-.73 3.28-.21.85-.51 1.93-.73 2.55-.21.62-.55 1.23-.72 1.82-.18.6-.19 1.31-.37 1.82-.18.52-.53.88-.73 1.46-.2.59-.26 1.45-.36 1.83-.1.37-.25.72-.37 1.09-.12.36-.44.76-.36 1.09.08.34.17.3.73.73.56.44 1.23.81 1.82 1.1.59.29 1.33.5 1.82.73.5.22.86.46 1.46.72.6.27 1.22.49 1.82.73.61.25 1.08.4 1.83.73.74.34 1.46.73 2.18 1.1.73.36 1.22.6 2.19 1.09.97.49 1.81.87 2.92 1.46 1.11.58 2.22 1.36 3.28 1.82 1.06.47 2.28.68 3.28 1.1 1.01.41 2.21 1.16 2.92 1.45.71.3 1.57.51 2.19.73.61.23 1.1.47 1.82.73.72.27 1.68.52 2.19.73.5.21 1.08.51 1.45.73.38.22.75.56 1.1.73.34.17.74.1 1.09.36.35.27.53.92.73 1.1.2.18.11.02.73.36.62.34 1.35.83 1.82 1.1.48.26.86.46 1.46.73.6.26 1.82.72 1.82.72M245.52 187.47s.19.7.72 1.83c.54 1.13 1.22 2.19 1.83 3.28.61 1.09 1.03 2.02 1.82 3.28.79 1.26 1.67 2.33 2.55 3.65.88 1.31 1.78 2.69 2.55 4.01.78 1.31 1.59 2.91 2.19 4.01.61 1.09 1.14 1.86 1.83 3.28.68 1.42 1.25 3.14 1.82 4.37.56 1.24 1.21 2.43 1.82 3.65.61 1.21 1.16 2.51 1.82 3.64.66 1.14 1.61 2.24 2.19 3.29.58 1.04 1.02 2.4 1.46 3.28.44.87 1 1.8 1.46 2.55.46.74 1.18 1.72 1.46 2.19.27.47.41.94.73 1.46.32.51.72.97 1.09 1.45.36.49.81 1 1.09 1.46.29.46.41.94.73 1.46s.76 1.07 1.1 1.46c.33.39.81.75 1.09 1.09.28.34.49.73.73 1.1l.73 1.09c.24.36.48.73.73 1.09.24.37.4.7.73 1.1.32.4.61.43 1.09 1.09.48.66.67 1.53 1.09 2.19.42.65.98 1.21 1.46 1.82.49.61.94 1.12 1.46 1.82.52.71 1.02 1.66 1.46 2.19.43.53 1.02.9 1.46 1.46.43.56.75 1.32 1.09 1.82.34.51.84 1.1 1.09 1.46.26.36.38.6.73 1.1.35.49.65.93 1.1 1.45.45.52 1.06 1 1.46 1.46.39.46.69.87 1.09 1.46.4.59.83 1.35 1.09 1.82.27.48.29.7.73 1.46s.87 1.33 1.46 2.19c.59.86 1.82 2.55 1.82 2.55M242.6 193.31s-.06.36 0 1.09c.06.74.09 1.07.36 2.19.28 1.12.73 2.19 1.1 3.28.36 1.09.74 2.3 1.09 3.28.35.98.71 1.83 1.09 2.92.39 1.09.68 2.28 1.1 3.28.41 1 1.14 2.09 1.46 2.92.32.82.39 1.45.73 2.55.34 1.1.73 2.19 1.09 3.28.36 1.09.78 2.53 1.09 3.28.32.75.8 1.48 1.1 2.19.29.71.59 1.7.73 2.19.14.48.17.94.36 1.45.19.51.58 1.11.73 1.46.15.36.18.8.36 1.1.19.29.37.18.73.73.36.54.66 1.46.73 1.82.07.36.2.62 0 1.09-.19.48-.36.37-1.09 1.1-.73.73-1.27 1.39-2.19 2.18-.92.8-2.07 1.57-2.91 2.19-.85.62-1.71 1.22-2.56 1.82-.85.61-1.89 1.27-2.55 1.83-.65.55-1.06 1-1.82 1.82-.76.82-1.3 1.72-2.19 2.55-.89.83-2.07 1.57-2.92 2.19-.84.62-1.63 1.04-2.55 1.82-.92.78-1.79 1.73-2.55 2.55-.76.83-1.57 1.83-2.19 2.56-.61.72-1.36 1.68-1.82 2.18-.46.51-1.18 1.12-1.46 1.46-.28.34-.49.73-.73 1.1-.24.36-.48.73-.73 1.09-.24.36-.48.73-.73 1.09-.24.37-.73 1.1-.73 1.1"/>
      <circle r="6" cx="269.943" cy="74.454" fill="#3f403b" pointer-events="none"/>
    </g>
    <g transform="translate(1892)">
      <text y="280" x="50" fill="blue" font-size="40">5</text>
      <path stroke="#3f403b" stroke-width="12" stroke-linecap="round" fill="none" pointer-events="none" d="M346.14 52.58s-.6.06-1.09 0c-.5-.06-.62-.26-1.46-.37-.85-.1-1.7 0-2.55 0h-2.56c-1.21 0-2.78-.06-3.64 0-.86.07-1.7.31-2.55.37-.85.06-1.65-.19-2.56 0-.9.19-1.67.66-2.55 1.09-.87.44-1.61 1.02-2.55 1.46-.94.44-1.89.59-2.92 1.09-1.02.51-2.14 1.27-2.91 1.83-.77.55-1.51 1.37-2.19 1.82-.68.45-1.58.61-2.19 1.09-.6.49-.79 1.15-1.46 1.83-.66.68-1.51 1.15-2.18 1.82-.68.67-1.15 1.26-1.83 2.19-.67.93-.97 1.57-1.82 2.91-.85 1.34-2.05 3.18-2.55 4.01-.51.84-1.02 1.62-1.46 2.56-.44.94-.73 1.94-1.09 2.91-.37.98-.88 2.09-1.1 2.92-.21.83-.15 1.33-.36 2.55-.21 1.22-.48 2.31-.73 3.65-.26 1.33-.62 2.8-.73 4.01-.11 1.21 0 2.55 0 3.64 0 1.1-.12 1.93 0 3.29.12 1.35.38 2.97.73 4.01.34 1.03.99 2.05 1.46 2.91.46.87.74 1.69 1.46 2.55.71.87 1.5 1.4 2.55 2.19 1.05.8 2.1 1.51 3.28 2.19 1.17.68 2.11 1.21 3.64 1.82 1.54.62 2.93.94 4.74 1.46 1.82.52 3.67 1.1 5.47 1.46 1.81.36 3.17.58 5.47.73 2.31.15 4.74 0 6.93 0h6.56c2.07 0 4.13.06 6.2 0 2.07-.06 4.08 0 6.2-.37s3.91-1.24 6.19-1.82c2.29-.58 5.14-.83 6.93-1.46 1.8-.62 3.69-1.69 5.11-2.55 1.41-.86 3.1-1.97 4.01-2.92.91-.94 1.54-2.01 2.18-3.28.65-1.27 1.23-2.69 1.46-4.01.23-1.31 0-2.67 0-4.01v-4.01c0-1.58.37-2.81 0-4.74-.37-1.93-1.48-3.76-2.19-5.47-.7-1.71-1.61-3.87-2.18-5.1-.57-1.23-1.31-2.56-1.83-3.65-.51-1.08-.99-2.3-1.45-3.28-.47-.98-.62-1.6-1.46-2.91-.84-1.32-2.12-2.75-2.92-3.65-.8-.9-1.82-1.82-2.55-2.55l-2.19-2.19-2.19-2.19c-.36-.36-.51-.57-1.09-1.09-.58-.52-.78-.76-1.82-1.46s-2.47-1.48-3.28-1.82c-.82-.34-1.8-.44-2.56-.73-.76-.3-1.36-.77-2.18-1.1-.83-.32.08-.23-2.56-.72-2.63-.5-8.02-.73-8.02-.73M334.47 123.31s-.06.84 0 1.46c.07.61.22.97.37 1.82.14.85.22 1.46.36 2.55.14 1.09.31 2.31.37 3.28.05.97 0 1.7 0 2.92v3.65c0 .97.06 1.45 0 2.91-.06 1.46-.19 3.15-.37 4.38-.17 1.22-.53 2.31-.73 3.64-.19 1.33-.18 2.79-.36 4.01-.18 1.23-.58 2.8-.73 3.65-.14.85-.31 1.82-.36 2.55-.06.73.12 1.43 0 2.19-.13.76-.56 1.47-.73 2.19-.18.71-.31 1.46-.37 2.18-.06.73.06 1.57 0 2.19-.06.62-.24 1.22-.36 1.82-.12.61-.3 1.1-.37 1.83-.07.72.06 1.69 0 2.18-.06.5-.3.98-.36 1.46-.06.49 0 .85 0 1.46V187.84c0 .73-.06 1.57 0 2.19.06.61.24 1.21.36 1.82.12.61.31 1.22.37 1.82.06.61-.06 1.33 0 1.83.06.49.32 1.09.36 1.45.05.37-.06.72 0 1.1.06.38.37 1.09.37 1.09M332.29 125.86s-.66.31-1.1.73c-.44.42-.58.74-1.09 1.46-.51.71-.87 1.32-1.46 2.19-.59.86-1.16 1.76-1.82 2.55-.67.78-1.39 1.27-2.19 2.18-.8.92-1.31 1.97-2.19 2.92-.88.95-2.25 1.87-2.91 2.55-.67.68-1.3 1.49-1.83 2.19-.52.7-1 1.56-1.46 2.19-.45.63-1 1.31-1.45 1.82-.46.51-.91.78-1.46 1.46-.56.68-1 1.56-1.46 2.19-.46.63-.97 1.21-1.46 1.82-.48.61-.91 1.27-1.46 1.82-.55.55-1.4 1.03-1.82 1.46-.42.44-.53.81-1.09 1.46-.57.65-1.25 1.3-1.83 1.82-.58.52-1.4 1.02-1.82 1.46-.42.44-.76 1.07-1.09 1.46-.34.39-.89.77-1.1 1.09-.2.33-.1.75-.36 1.1-.27.35-.79.42-1.1.73-.3.31-.45.62-.72 1.09-.28.47-.68.96-.73 1.46-.06.5-.07.61.36 1.46.43.84 1.04 1.39 1.82 2.18.79.8 1.71 1.46 2.56 2.19.85.73 1.45 1.23 2.55 2.19 1.1.96 2.4 2.09 3.28 2.92.87.82 1.79 1.73 2.55 2.55.76.82 1.46 1.7 2.19 2.55.73.85 1.6 1.92 2.19 2.55.58.63 1.45 1.46 1.82 1.82.36.37.85.86 1.09 1.1.25.24.53.4.73.73.2.32.17.7.37 1.09.19.4.56.75.73 1.1.16.34.05.34.36 1.09s1.09 2.19 1.09 2.19M337.76 129.14s0 .68.36 1.82c.36 1.15.69 1.78 1.46 3.29.77 1.5 1.52 2.75 2.55 4.37 1.03 1.62 2.22 3.26 3.28 4.74 1.07 1.48 2.32 2.86 3.28 4.38.97 1.51 1.7 3.15 2.55 4.73.86 1.58 1.47 3.07 2.56 4.74 1.08 1.68 2.59 3.22 3.64 4.74 1.06 1.53 1.95 3.16 2.92 4.74s1.94 3.16 2.92 4.74l2.91 4.74c.97 1.58 2 3.37 2.92 4.74.92 1.38 2.16 2.93 2.92 4.01.75 1.08 1.59 2.42 2.18 3.28.6.86 1.36 1.94 1.83 2.56.47.62 1.05 1.24 1.45 1.82.41.58.78 1.42 1.1 1.82.32.41.45.39 1.09 1.1.64.7 1.83 2.18 1.83 2.18M335.93 200.24s.48.13 1.1.36c.61.22.76.13 1.82.73 1.06.59 1.78 1.26 2.92 2.19 1.13.92 2.09 1.91 3.28 2.91 1.19 1.01 2.62 2 3.64 2.92 1.03.92 2.22 2.28 2.92 2.92.7.64 1.43 1.12 2.19 1.82.76.69 1.6 1.67 2.18 2.19.58.52 1.22.97 1.83 1.46.6.48 1.14.79 1.82 1.45.68.67 1.28 1.73 1.82 2.19.54.46 1.05.55 1.83 1.09.77.55 1.5 1.38 2.18 1.83.69.44 1.67.77 2.19 1.09.52.32 1.23.95 1.46 1.1.23.14.45.16.73.36.28.2.48.49.73.73.24.24.59.39.73.73.14.33.06.48 0 1.09-.06.62-.3 1.1-.37 1.82-.07.73.12 1.2 0 2.19-.12 1-.47 1.83-.73 2.92-.25 1.09-.55 2.19-.73 3.28-.18 1.09-.1 1.92-.36 3.28-.26 1.36-.78 2.57-1.09 4.01-.32 1.45-.35 2.77-.73 4.38-.38 1.61-.99 2.82-1.46 4.74-.48 1.92-.88 4.14-1.1 5.83-.21 1.69-.19 3.88-.36 5.1-.17 1.23-.66 2.92-.73 3.65-.07.73.06 1.57 0 2.19-.06.61-.28 1.56-.36 1.82-.09.26-.37.73-.37.73M327.55 198.41s-.46.86-.73 1.46c-.27.6-.33.74-.73 1.82-.4 1.09-.61 1.83-1.1 3.28-.48 1.46-1.01 2.82-1.45 4.38-.44 1.56-.58 2.89-1.1 4.74-.52 1.85-1.26 3.54-1.82 5.47-.56 1.92-.88 3.64-1.46 5.83-.58 2.2-1.21 4.38-1.82 6.56-.61 2.19-1.28 4.39-1.82 6.57-.55 2.17-.99 4.49-1.46 6.56-.48 2.07-.92 4.23-1.46 6.2-.54 1.96-1.42 4.38-1.82 5.83-.41 1.45-.81 3.05-1.1 4.38-.28 1.32-.51 2.91-.73 4.01-.22 1.09-.41 2.05-.73 3.28-.32 1.22-.91 2.8-1.09 3.64-.18.84-.18 1.69-.36 2.55-.19.87-.57 1.84-.73 2.56-.17.72-.27 1.69-.37 2.18-.1.49-.26 1.09-.36 1.46-.11.37-.23.62-.37 1.1-.14.48-.24.97-.36 1.45-.12.49-.23.86-.37 1.46-.13.61-.36 1.83-.36 1.83"/>
      <circle r="6" cx="358.536" cy="73.36" fill="#3f403b" pointer-events="none"/>
    </g>
    <g transform="translate(2365)">
      <text y="280" x="50" fill="blue" font-size="40">6</text>
      <path stroke="#3f403b" stroke-width="12" stroke-linecap="round" fill="none" pointer-events="none" d="M415.41 55.5h-3.64c-.61 0-.92-.19-1.83 0-.9.18-1.72.79-2.55 1.09-.83.3-1.79.43-2.55.73-.76.29-1.57.75-2.19 1.09-.62.34-1.18.65-1.82 1.1-.64.44-1.22.97-1.82 1.45-.61.49-1.19.89-1.83 1.46-.64.58-1.24 1.31-1.82 1.83-.58.51-1.27.9-1.82 1.45-.55.55-.94 1.12-1.46 1.83-.52.7-1.02 1.37-1.46 2.18-.44.82-.66 1.68-1.09 2.56-.44.87-1.12 1.73-1.46 2.55-.35.81-.46 1.46-.73 2.55-.28 1.09-.55 2.2-.73 3.28-.18 1.09-.17 1.94-.37 3.28-.19 1.35-.57 2.92-.72 4.01-.16 1.09-.3 2.07-.37 3.28-.07 1.22-.06 2.55 0 3.65s.11 1.92.37 3.28c.26 1.36.53 2.71 1.09 4.01.56 1.31 1.43 2.6 2.19 3.65.76 1.04 1.64 2 2.55 2.91.91.92 1.77 1.72 2.92 2.56 1.14.83 2.37 1.64 3.64 2.18 1.28.55 2.79.75 4.01 1.1 1.22.35 2.57.93 3.65 1.09 1.08.16 2.06 0 3.28 0 1.21 0 2.53.12 3.64 0 1.12-.12 1.82-.38 3.29-.73 1.46-.34 3.13-.69 4.37-1.09 1.25-.4 2.43-.97 3.65-1.46 1.21-.49 2.65-1.01 3.64-1.46.99-.44 2.04-.77 2.92-1.46.88-.69 1.57-1.82 2.19-2.55.61-.72 1.33-1.58 1.82-2.19.49-.6.87-.9 1.46-1.82.58-.91 1.11-1.98 1.46-2.92.34-.94.5-2.06.73-2.91.22-.86.59-1.59.72-2.55.14-.97-.06-1.7 0-2.92.07-1.22.31-2.43.37-3.65.06-1.21 0-2.79 0-3.64v-2.55c0-1.1.12-2.29 0-3.29-.12-.99-.56-2.07-.73-2.91-.16-.85-.17-1.57-.36-2.55-.2-.99-.61-2.43-.73-2.92-.13-.49-.15-.72-.37-1.46-.21-.74-.5-1.57-.73-2.19-.22-.61-.32-1.04-.73-1.82-.4-.78-1-1.56-1.45-2.19-.46-.63-.72-1.18-1.46-1.82-.75-.64-1.78-.92-2.56-1.46-.77-.54-1.39-1.34-2.18-1.82-.79-.49-1.61-.78-2.55-1.1-.95-.32-1.71-.45-2.92-.72-1.21-.28-2.56-.56-3.65-.73-1.08-.17-2.43-.32-3.28-.37-.85-.05-1.79.12-2.55 0-.76-.12-1.59-.63-2.19-.73-.6-.09-1.32-.06-1.82 0s-.95.18-1.46.37-1.46.73-1.46.73"/>
      <circle r="6" cx="402.286" cy="74.819" fill="#3f403b" pointer-events="none"/>
      <path stroke="#3f403b" stroke-width="12" stroke-linecap="round" fill="none" pointer-events="none" d="M423.07 75.18h-.37M409.58 120.39V127.68c0 .98-.06 1.82 0 2.92.06 1.1.25 2.43.36 3.28.11.85.29 1.46.37 2.55.07 1.09-.06 2.43 0 3.28.06.86.22 1.46.36 2.56.14 1.09.25 2.3.37 3.28.11.97.3 1.94.36 2.91.06.97-.12 1.57 0 2.92.12 1.35.56 2.8.73 4.01.17 1.21.3 2.43.36 3.65.07 1.21 0 2.06 0 3.64v4.74c0 1.46.13 3.14 0 4.38-.12 1.23-.59 2.31-.72 3.64-.14 1.33.06 3.04 0 4.01-.07.98-.17 1.7-.37 2.92-.2 1.22-.66 2.92-.73 3.65-.07.72.06 1.45 0 2.18-.06.74-.26 1.7-.36 2.19-.1.49-.26 1.09-.37 1.46-.1.37-.3.73-.36 1.09-.06.36 0 1.1 0 1.1M407.76 194.4s-.06.34-.37 1.1c-.31.75-.63 1-1.09 2.18-.47 1.18-.55 2.05-1.1 3.65-.54 1.6-1.28 3.18-1.82 4.74s-1.04 3.17-1.46 4.74c-.42 1.56-.73 3.16-1.09 4.74-.37 1.58-.67 3.14-1.1 4.74-.42 1.59-1.03 3.17-1.45 4.74-.42 1.56-.6 3.12-1.1 4.74-.49 1.62-1.26 3.06-1.82 4.74-.56 1.67-1.13 3.66-1.46 5.1-.32 1.44-.35 2.77-.73 4.38-.38 1.6-1.08 3.06-1.46 4.73-.37 1.68-.35 3.26-.73 5.11-.37 1.85-1.05 3.78-1.45 5.47-.41 1.69-.78 3.29-1.1 5.1-.31 1.81-.5 3.89-.73 5.47-.22 1.58-.58 3.65-.73 4.74-.14 1.09-.25 2.31-.36 3.28-.12.97-.33 2.31-.37 2.92-.03.6 0 1.58 0 1.82v.73M413.59 194.4s.22.38 1.09 2.19c.88 1.81 1.18 2.75 2.55 5.47 1.38 2.72 2.8 5.1 4.38 8.02 1.58 2.91 3.38 5.9 4.74 8.75 1.36 2.85 2.39 5.61 3.64 8.75 1.26 3.14 2.66 6.48 3.65 9.48.99 2.99 1.93 6.35 2.55 9.11.63 2.77 1.11 6.44 1.46 8.39.35 1.94.85 4.5 1.09 5.83.25 1.34.52 3.03.73 4.01.22.98.55 1.96.73 2.92.18.96.26 2.18.37 2.92.1.73.23 1.33.36 2.18.13.85.32 1.83.37 2.55.05.73-.06 1.21 0 2.19s.36 2.92.36 2.92M403.38 123.31s-.15.47-.73 1.82-.86 1.94-1.82 4.01c-.96 2.07-1.9 3.91-2.92 6.2s-1.85 4.48-2.92 6.93c-1.06 2.44-2.28 4.99-3.28 7.29s-1.9 4.39-2.91 6.93c-1.02 2.53-2.1 5.25-2.92 7.65-.82 2.4-1.17 4.66-2.19 7.29-1.01 2.64-3.07 6.23-3.64 7.66-.58 1.43-1.1 3.28-1.46 4.37-.37 1.1-.85 2.56-1.1 3.29-.24.72-.72 2.18-.72 2.18M414.68 124.4s.4 1.57 1.1 4.01c.69 2.44 1.02 4.07 2.18 7.29 1.17 3.23 2.45 5.83 4.01 9.48 1.57 3.66 3.21 7.52 4.74 10.94 1.54 3.42 3.35 7.07 4.74 10.21 1.39 3.14 3.06 6.96 4.01 9.48.95 2.51 1.88 5.81 2.56 7.65.67 1.85 1.63 4.23 2.18 5.47.56 1.24 1.44 2.81 1.83 3.65.39.84.86 2.06 1.09 2.55.23.49.51 1.08.73 1.46.22.38.2.52.73 1.09.52.58 1.82 1.46 1.82 1.46"/>
    </g>
    <g transform="translate(2838)">
      <text y="280" x="50" fill="blue" font-size="40">7</text>
      <circle r="6" cx="402.404" cy="74.089" fill="#3f403b" pointer-events="none"/>
      <circle r="6" cx="423.55" cy="74.819" fill="#3f403b" pointer-events="none"/>
      <path stroke="#3f403b" stroke-width="12" stroke-linecap="round" fill="none" pointer-events="none" d="M407.87 98.88s.16.6.37.73c.2.13.57-.07.73 0 .16.07.14.21.36.36.22.16.38.29.73.37.36.08 1.09 0 1.09 0"/>
      <path stroke="#3f403b" stroke-width="12" stroke-linecap="round" fill="none" pointer-events="none" d="M412.98 54.04h-4.74c-.49 0-1.08-.06-1.46 0-.38.06-.59.15-1.09.36-.51.21-.87.46-1.46.73-.6.27-1.35.58-1.83.73-.47.15-.94.18-1.45.36-.51.19-1.22.61-1.46.73-.25.13-.31.07-.73.37s-.61.61-1.1 1.09c-.48.49-1.09 1.1-1.45 1.46-.37.37-.76.82-1.1 1.09-.34.28-.86.43-1.09.73-.23.31-.17.7-.37 1.1-.19.39-.48.73-.73 1.09-.24.37-.49.52-.72 1.09-.24.58-.2 1.42-.37 1.83-.17.4-.59.63-.73 1.09-.14.47.06 1.08 0 1.46-.06.38-.22.61-.36 1.09-.14.48-.31.98-.37 1.46s0 .97 0 1.46.06.96 0 1.46-.24.97-.36 1.46c-.12.48-.24.97-.37 1.46l-.36 1.45c-.12.49-.31.98-.37 1.46-.05.48.07.96 0 1.46-.06.5-.25 1.09-.36 1.46-.11.37-.29.61-.36 1.09-.08.48.06.96 0 1.46-.07.5-.3.86-.37 1.46s.06 1.21 0 1.82c-.06.62-.32 1.34-.36 1.82-.05.49 0 .86 0 1.46V95.96c0 .49-.07 1.08 0 1.46.06.38.15.59.36 1.1.21.5.49.97.73 1.45.24.49.53 1.18.73 1.46.2.28.41.29.73.73s.43 1.04.73 1.46c.3.42.61.61 1.09 1.09.49.49 1.02 1.14 1.46 1.46.44.32.84.39 1.46.73.62.34 1.23.8 1.82 1.1.59.29 1.33.5 1.82.72.5.23.98.49 1.46.73.49.25.99.56 1.46.73.47.18.84.17 1.46.37.62.2 1.23.55 1.82.73.6.17 1.22.3 1.82.36.61.06 1.18-.12 1.83 0 .64.13 1.34.64 1.82.73.48.09.84-.06 1.46 0s1.22.31 1.82.37c.61.06 1.34 0 1.82 0 .49 0 1.08.06 1.46 0 .38-.07.62-.23 1.1-.37.48-.14.85-.23 1.45-.36.61-.14 1.22-.25 1.83-.37l1.82-.36c.61-.12 1.31-.19 1.82-.37.52-.17.86-.46 1.46-.73.6-.26 1.08-.39 1.82-.73.75-.33 1.68-.77 2.19-1.09.52-.32.97-.73 1.46-1.09l1.46-1.1c.49-.36.81-.53 1.46-1.09.65-.56 1.33-1.34 1.82-1.82.49-.49 1.06-1 1.46-1.46.4-.46.59-.75 1.09-1.46.51-.72 1.08-1.59 1.46-2.19.38-.6.8-1.23 1.09-1.82.3-.59.49-1.22.73-1.82.25-.61.56-1.23.73-1.83.18-.59.17-1.08.37-1.82.19-.74.57-1.59.73-2.19.16-.6.23-1.09.36-1.82.13-.73.31-1.46.37-2.19.06-.72-.07-1.57 0-2.19.06-.61.31-1.33.36-1.82.05-.48 0-.97 0-1.46 0-.48.06-.84 0-1.45-.06-.62-.3-1.22-.36-1.83-.06-.6.12-1.29 0-1.82-.13-.53-.47-.86-.73-1.46-.27-.6-.58-1.35-.73-1.82-.16-.48-.18-.95-.37-1.46s-.41-.94-.73-1.46-.61-.84-1.09-1.46c-.48-.61-1.23-1.56-1.46-1.82-.23-.26-.17-.29-.73-.73-.56-.44-1.21-.73-1.82-1.09-.61-.37-1.35-.83-1.82-1.1-.48-.26-.86-.46-1.46-.73-.6-.26-1.19-.41-1.82-.72-.64-.32-1.13-.84-1.83-1.1-.69-.25-1.34-.23-2.19-.36-.84-.13-1.46-.23-2.55-.37-1.09-.14-2.43-.25-3.28-.36-.85-.11-1.57-.17-2.55-.37-.98-.19-2.92-.73-2.92-.73M408.24 124.77v1.45c0 .73-.06 1.46 0 2.19.06.74.21 1.1.36 2.19.15 1.09.26 2.43.37 3.28.1.85.3 1.7.36 2.55.06.85-.06 1.82 0 2.56.06.73.24 1.45.37 2.18.12.73.26 1.7.36 2.19.1.49.32 1.1.36 1.46.05.36 0 .61 0 1.09v1.46c0 .73.07 1.81 0 2.19-.06.38-.28.61-.36 1.09-.08.48 0 1.1 0 1.46v1.09c0 .49-.06.96 0 1.46s.31.98.36 1.46c.06.48-.06 1.08 0 1.46.07.38.29.61.37 1.09.08.48 0 .85 0 1.46s-.06 1.33 0 1.82c.06.5.29.86.36 1.46.08.61 0 1.22 0 1.83v3.64c0 .61-.06 1.21 0 1.82.07.62.26 1.34.37 1.83.11.49.3.97.36 1.46.06.48 0 .85 0 1.45 0 .61-.06 1.45 0 1.83.06.38.23.61.37 1.09.14.48.32 1.1.36 1.46.05.36-.06.59 0 1.09.06.5.31.98.37 1.46s0 .97 0 1.46-.07 1.19 0 1.46c.06.26-.02.34.36.73.39.38 1.46.73 1.46.73M410.06 187.47s-1.29 1.73-1.82 2.56c-.53.82-.97 1.7-1.46 2.55-.49.85-.99 1.5-1.46 2.55-.47 1.05-.77 2.08-1.09 3.28-.32 1.2-.5 2.55-.73 3.65-.23 1.09-.54 2.07-.73 3.28-.19 1.21-.19 2.54-.37 3.65-.17 1.1-.42 2.17-.73 3.28-.3 1.11-.87 2.32-1.09 3.28-.22.95-.16 1.69-.36 2.91-.2 1.23-.41 2.3-.73 3.65s-.57 2.4-1.1 4.01c-.52 1.61-1.19 3.05-1.82 4.74-.63 1.69-1.23 3.52-1.82 5.1-.59 1.59-1.4 3.86-1.83 4.74-.42.89-1.11 1.74-1.45 2.56-.35.81-.55 1.71-.73 2.55-.18.84-.19 1.8-.37 2.55-.17.75-.51 1.23-.73 2.19-.21.95-.19 2.16-.36 2.91-.17.75-.55 1.47-.73 2.19-.18.72-.18 1.44-.36 2.19-.19.75-.54 1.35-.73 2.19-.2.83-.32 1.82-.37 2.55-.05.73.13 1.54 0 2.19-.12.64-.64 1.34-.73 1.82-.09.48 0 .97 0 1.46 0 .48.06.96 0 1.46-.06.49-.25 1.09-.36 1.45-.11.37-.31.74-.37 1.1-.06.36.06.71 0 1.09-.06.38-.28.62-.36 1.1-.08.48.06.96 0 1.45-.06.5-.24.98-.37 1.46-.12.49-.29.86-.36 1.46s0 1.82 0 1.82M412.25 190.76s.18.49.36 1.45c.18.97.23 1.71.37 2.92.13 1.21.17 2.3.36 3.65.19 1.34.57 2.92.73 4.01.16 1.09.17 1.93.37 3.28.19 1.34.51 3.03.72 4.01.22.98.48 1.83.73 2.92.26 1.09.58 2.43.73 3.28.16.84.17 1.57.37 2.55.19.98.48 1.94.73 2.92.24.97.44 2.15.73 2.91.28.77.67 1.24 1.09 2.19.41.95.73 1.94 1.09 2.92.37.97.68 2.03 1.1 2.91.41.89.94 1.6 1.46 2.56.51.95.99 2.05 1.45 2.91.47.87.9 1.67 1.46 2.55.57.88 1.47 2.07 1.82 2.56.36.49.78.88 1.1 1.45.32.57.41 1.19.73 1.83.31.63.83 1.34 1.09 1.82.26.48.39.84.73 1.46.34.62.73 1.21 1.09 1.82.37.61.68 1 1.1 1.82.42.83.66 1.68 1.09 2.56.44.87.97 1.7 1.46 2.55.49.85 1.07 1.83 1.46 2.55.38.72.82 1.59 1.09 2.19.27.6.51 1.33.73 1.82.22.5.49.97.73 1.46s.62.98.73 1.46c.11.47-.12.81 0 1.46.12.64.55 1.22.73 1.82.18.59.27 1.45.36 1.82.1.37.29.62.37 1.1.08.48-.13 1.03 0 1.45.13.42.52.64.73 1.1.2.46.25 1.09.36 1.46.11.36.17.25.37 1.09.19.84.36 2.55.36 2.55M405.69 122.58s-.83.99-1.46 1.82c-.63.84-.89 1.31-1.83 2.55-.93 1.25-1.85 2.13-2.91 3.65-1.07 1.52-1.84 3.03-2.92 4.74-1.08 1.71-2.29 3.53-3.28 5.1-.99 1.57-1.92 3.06-2.92 4.74-1 1.69-1.89 3.19-2.91 5.11-1.03 1.91-1.9 3.97-2.92 5.83-1.02 1.86-2.39 3.91-3.28 5.47-.89 1.56-2 3.55-2.55 4.74-.56 1.18-1.11 2.79-1.46 3.64-.36.86-.8 1.72-1.1 2.56-.29.83-.4 1.56-.73 2.55-.32.99-.83 2.19-1.09 2.92-.26.72-.42 1.43-.73 2.18-.31.76-.89 1.6-1.09 2.19-.2.59-.26 1.33-.37 1.82-.11.49-.32 1.1-.36 1.46-.05.36.06.83 0 1.1-.06.26-.25.25-.37.72-.11.48 0 1.34 0 1.46v.37M417.35 124.04s.25.49.37 1.46c.12.96-.13 1.56 0 2.91.12 1.36.42 2.66.73 4.01.3 1.35.64 2.54 1.09 4.01.44 1.47.97 2.92 1.46 4.38.48 1.46.95 2.8 1.46 4.37.5 1.58.95 3.48 1.45 4.74.51 1.26 1.36 2.47 1.83 3.65.47 1.18.66 2.41 1.09 3.64.43 1.24.88 2.3 1.46 3.65s1.4 2.94 1.82 4.01c.42 1.07.56 1.92 1.1 3.28.53 1.37 1.42 3.05 1.82 4.01.4.96.64 1.81 1.09 2.92.46 1.11.95 2.07 1.46 3.28s.9 2.41 1.46 3.65c.56 1.24 1.34 2.67 1.82 3.64.49.97 1.17 2.21 1.46 2.92.29.71.5 1.57.73 2.19.23.61.51 1.32.73 1.82.22.49.49.97.73 1.46.24.48.55.99.73 1.46.17.47.17.94.36 1.45.19.51.58 1.11.73 1.46.15.36.17.7.37 1.1.19.39.59.85.72 1.09.14.23.37.73.37.73"/>
    </g>
    <g transform="translate(3311)">
      <text y="280" x="50" fill="blue" font-size="40">8</text>
      <circle r="6" cx="402.769" cy="74.089" fill="#3f403b" pointer-events="none"/>
      <circle r="6" cx="423.185" cy="74.454" fill="#3f403b" pointer-events="none"/>
      <path stroke="#3f403b" stroke-width="12" stroke-linecap="round" fill="none" pointer-events="none" d="M403.86 94.14s.73.49 1.1.73l1.09.73c.36.24.69.4 1.09.73.4.33.77.89 1.1 1.09.32.2.84.26 1.09.37.25.1.38.21.73.36.36.15.61.23 1.09.37.49.14 1.09.25 1.46.36.37.11.62.29 1.1.37.48.07.97 0 1.45 0h1.46c.37 0 .72.06 1.1 0 .38-.07.84-.26 1.09-.37.25-.1.45-.16.73-.36.28-.2.15-.21.73-.73s1.82-1.46 1.82-1.46"/>
      <path stroke="#3f403b" stroke-width="12" stroke-linecap="round" fill="none" pointer-events="none" d="M417.72 56.59s-.48.06-1.1 0c-.61-.06-1.09-.23-1.82-.37-.73-.13-1.46-.3-2.19-.36-.72-.06-1.57.06-2.19 0-.61-.06-1.21-.3-1.82-.36-.6-.06-1.33 0-1.82 0h-2.92c-.73 0-1.45-.07-2.19 0-.73.06-1.55.18-2.18.36-.63.18-1.46.6-1.83.73-.36.13-.7.17-1.09.36-.39.2-.73.49-1.09.73-.37.25-.66.31-1.1.73-.44.42-.67 1.11-1.09 1.46-.42.35-1.07.35-1.46.73-.38.38-.48.97-.73 1.46-.24.48-.41.94-.73 1.46-.32.51-.77.88-1.09 1.45-.32.58-.55 1.23-.73 1.83-.18.59-.17 1.08-.36 1.82-.2.74-.47 1.34-.73 2.19-.27.84-.59 1.95-.73 2.55-.15.6-.31 1.22-.37 1.82-.06.61 0 1.34 0 1.83V83.2c0 .98-.06 2.06 0 2.92.06.86.25 1.82.37 2.55.11.73.11 1.41.36 2.19s.87 1.48 1.1 2.19c.22.7.11 1.41.36 2.19.25.77.75 1.56 1.09 2.18.34.62.81 1.24 1.1 1.83.29.58.33 1.15.73 1.82.39.67 1.08 1.34 1.45 1.82.38.48.73.97 1.1 1.46.36.49.64.94 1.09 1.46.45.52.97.97 1.46 1.46.49.48.78.9 1.46 1.45.68.56 1.72 1.19 2.19 1.46.47.28.83.39 1.45.73.63.34 1.13.77 1.83 1.1.7.32 1.59.57 2.19.73.59.15 1.09.29 1.82.36.72.07 1.45-.06 2.19 0 .73.06 1.21.28 2.18.36.97.08 1.95 0 2.92 0s1.58.07 2.92 0c1.34-.06 2.78-.18 4.01-.36 1.22-.18 2.41-.42 3.64-.73s2.64-.69 3.65-1.09c1.01-.4 1.96-1.05 2.92-1.46.95-.42 2.16-.77 2.91-1.1.75-.32 1.45-.5 2.19-1.09.74-.59 1.27-1.64 1.82-2.19.56-.54 1.36-.92 1.83-1.45.46-.54.72-1.22 1.09-1.83.36-.61.7-1.11 1.09-1.82.4-.72.8-1.48 1.1-2.19.29-.71.4-1.32.73-2.19.32-.86.7-1.58 1.09-2.55.39-.96.94-2.08 1.09-2.91.16-.84 0-1.58 0-2.56v-2.91-3.28-2.56c0-.97.06-2.3 0-2.91-.06-.62-.23-1.1-.36-1.83-.13-.72-.12-1.52-.37-2.18-.24-.67-.83-1.35-1.09-1.83-.26-.47-.36-.73-.73-1.45-.36-.73-.79-1.77-1.09-2.19-.3-.42-.7-.64-1.1-1.1-.39-.46-.53-.81-1.09-1.45-.56-.65-1.36-1.43-1.82-1.83-.46-.4-1.1-.84-1.46-1.09-.36-.25-.5-.35-1.1-.73-.59-.38-1.23-.8-1.82-1.09-.58-.29-1.23-.56-1.82-.73-.59-.18-1.45-.27-1.82-.37-.38-.1-.62-.22-1.1-.36-.48-.14-.97-.31-1.46-.37-.48-.06-.96.06-1.45 0-.5-.06-.98-.24-1.46-.36-.49-.12-.98-.31-1.46-.37s-1.19.07-1.46 0c-.26-.06-.26-.25-.73-.36-.47-.11-1.46 0-1.46 0M409.7 123.67v9.12c0 1.21-.07 2.67 0 3.64.06.98.23 1.83.36 2.92.13 1.09.3 2.19.36 3.28.07 1.09 0 2.43 0 3.28v21.51c0 .61.07 1.21 0 1.83-.06.61-.29 1.09-.36 1.82-.07.72 0 1.7 0 2.19V181.64c0 .61-.06 1.33 0 1.82.06.5.23.86.36 1.46.14.61.27 1.45.37 1.83.1.37.36 1.09.36 1.09M408.6 188.93s-.41.64-.73 1.46c-.32.83-.48 1.7-.73 2.55-.24.85-.47 1.59-.73 2.56-.25.96-.56 2.07-.72 2.91-.17.85-.16 1.33-.37 2.55-.21 1.23-.44 2.65-.73 3.65-.28 1-.75 1.73-1.09 2.92-.34 1.19-.42 2.41-.73 3.64s-.69 2.64-1.1 3.65c-.4 1.01-.92 1.72-1.45 2.92-.54 1.19-1.09 2.67-1.46 3.64-.38.97-.73 1.95-1.1 2.92-.36.97-.83 2.19-1.09 2.91-.26.73-.42 1.44-.73 2.19-.31.76-.68 1.24-1.09 2.19-.42.95-.8 1.96-1.1 2.92-.29.95-.43 2.04-.73 2.91-.29.88-.75 1.82-1.09 2.55-.34.74-.7 1.35-1.09 2.19-.39.84-.71 1.59-1.1 2.55-.38.97-.73 1.95-1.09 2.92-.36.97-.82 2.08-1.09 2.92-.28.84-.34 1.54-.73 2.55-.4 1.01-1.21 2.1-1.46 2.92-.26.82-.18 1.68-.37 2.55-.18.86-.47 1.58-.73 2.55-.25.97-.56 2.07-.72 2.92-.17.84-.31 1.7-.37 2.55-.06.85.06 1.69 0 2.55-.06.86-.19 1.92-.36 2.55-.17.64-.62 1.23-.73 1.83-.12.59.06 1.2 0 1.82-.06.62-.25 1.21-.37 1.82-.12.61-.33 1.46-.36 1.83-.04.36 0 .72 0 1.09 0 .36.06.71 0 1.09-.06.38-.29.62-.37 1.1-.07.48.07 1.08 0 1.45-.06.38-.36 1.1-.36 1.1M410.42 192.21s.01.82.37 2.19c.36 1.38.88 2.54 1.46 4.01.57 1.47 1.01 2.54 1.82 4.38.81 1.84 1.8 3.78 2.55 5.47.76 1.69 1.37 3.26 2.19 5.1.82 1.84 1.82 3.89 2.55 5.47.73 1.58 1.6 3.51 2.19 4.74.59 1.22 1.31 2.56 1.82 3.64.51 1.09.9 2.17 1.46 3.29.56 1.12 1.32 2.32 1.82 3.28.51.96 1.02 1.85 1.46 2.91.44 1.07.66 2.17 1.1 3.28.43 1.12 1.06 2.33 1.45 3.29.4.96.86 2.3 1.1 2.91.23.61.48 1.22.73 1.83.24.6.46 1.1.73 1.82.26.72.41 1.43.73 2.19.31.75.82 1.59 1.09 2.18.27.6.46 1.1.73 1.83.26.72.59 1.7.73 2.18.14.49.27 1.21.36 1.46.1.26.22.38.37.73.14.36.3.74.36 1.1.06.36-.06.59 0 1.09.06.5.23.85.37 1.46.13.6.31 1.34.36 1.82.05.48-.12.93 0 1.46.13.53.62.98.73 1.46.11.47 0 .97 0 1.46 0 .48-.06.84 0 1.45.06.62.25 1.34.36 1.83.11.49.31.97.37 1.45.06.49 0 .98 0 1.46v4.74c0 .37.26 1.03 0 1.1-.27.06-.37-.73-.37-.73M400.58 128.41s-2.16 2.58-3.28 4.01c-1.12 1.44-2.19 2.92-3.28 4.38-1.1 1.46-2.41 3.17-3.28 4.37-.87 1.2-1.84 2.66-2.55 3.65-.72.98-1.57 2.07-2.19 2.92-.62.84-1.25 1.8-1.83 2.55-.58.75-1.26 1.38-1.82 2.18-.56.81-1.1 1.95-1.46 2.56-.35.61-.67 1.28-1.09 1.82-.42.54-.82.76-1.46 1.46s-1.38 1.5-1.82 2.19c-.45.68-.73 1.45-1.1 2.18-.36.73-.67 1.54-1.09 2.19-.42.66-1.13 1.26-1.46 1.82-.33.57-.46 1.1-.73 1.83-.26.72-.52 1.68-.73 2.18-.2.51-.55.99-.72 1.46-.18.47-.25.97-.37 1.46s-.23.85-.36 1.46c-.14.6-.32 1.34-.37 1.82-.05.49 0 1.1 0 1.46v1.09c0 .37.06.6 0 1.1-.06.5-.32 1.09-.36 1.46-.05.36.06.59 0 1.09-.06.5-.31.98-.37 1.46s.16 1.39 0 1.46c-.16.06-.36-.37-.36-.37M414.44 124.77s-.25.37-.37 1.09c-.12.72-.12.95 0 2.19.12 1.23.49 2.43.73 3.64.24 1.22.41 2.3.73 3.65s.63 2.42 1.09 4.01c.46 1.59.87 2.91 1.46 4.74s1.34 4.01 1.82 5.47c.49 1.46.93 3.01 1.46 4.37.54 1.37 1.26 2.9 1.83 4.01.56 1.12 1.16 1.97 1.82 3.28.66 1.32 1.24 2.79 1.82 4.02.59 1.22 1.34 2.67 1.82 3.64.49.97 1.07 2.08 1.46 2.92.39.84.75 1.81 1.1 2.55.34.74.67 1.24 1.09 2.19.41.95.68 2.03 1.09 2.91.42.89.98 1.71 1.46 2.56.49.85 1.1 1.94 1.46 2.55.36.61.8 1.23 1.09 1.82.29.59.44 1.29.73 1.82.3.53.87 1.2 1.1 1.46.22.26.41.29.73.73.31.44.46.86.73 1.46.26.6.41 1.19.72 1.82.32.64.86 1.46 1.1 1.83.23.37.38.59.73 1.09.35.5.95 1.23 1.09 1.46.14.23.08.4.37.73.29.33.78.42 1.09.73.31.31.51.82.73 1.09.22.27.45.39.73.73.28.34.73 1.09.73 1.09"/>
    </g>
    <g transform="translate(3784)">
      <text y="280" x="50" fill="blue" font-size="40">9</text>
      <circle r="6" cx="403.133" cy="74.454" fill="#3f403b" pointer-events="none"/>
      <circle r="6" cx="423.185" cy="73.725" fill="#3f403b" pointer-events="none"/>
      <path stroke="#3f403b" stroke-width="12" stroke-linecap="round" fill="none" pointer-events="none" d="M402.4 91.95s.38.6.73 1.1c.35.49.67 1.03 1.1 1.46.43.43 1.07.75 1.46 1.09.38.34.65.78 1.09 1.09.44.32 1.08.51 1.46.73.38.22.75.56 1.09.73.35.17.73.24 1.09.37.37.12.73.24 1.1.36.36.12.49.27 1.09.37.6.09 1.21-.07 1.83 0 .61.06 1.33.31 1.82.36.48.05 1.08.06 1.46 0 .38-.06.73-.24 1.09-.36.36-.13.61-.23 1.09-.37.49-.14.95-.17 1.46-.36.51-.19 1.08-.51 1.46-.73.38-.22.73-.49 1.09-.73.37-.24.73-.49 1.1-.73.36-.24.69-.4 1.09-.73.4-.33.61-.61 1.1-1.09.48-.49 1.18-1.12 1.45-1.46.28-.34.56-.75.73-1.1.17-.34.16-.59.37-1.09.21-.5.73-1.46.73-1.46"/>
      <path stroke="#3f403b" stroke-width="12" stroke-linecap="round" fill="none" pointer-events="none" d="M418.81 54.04s-1.45.06-2.19 0c-.73-.06-1.69-.27-2.18-.37-.5-.1-.86-.29-1.46-.36-.61-.08-.98 0-1.83 0h-2.55c-.73 0-1.69-.06-2.19 0-.49.06-.73.27-1.45.36-.73.09-1.57-.06-2.19 0-.62.06-1.2.18-1.82.37-.63.18-1.44.52-1.83.73-.38.2-.59.37-1.09.73-.5.35-1.07.75-1.46 1.09-.39.34-.57.51-1.09 1.09-.52.58-.91 1.28-1.46 1.83-.55.55-1.27.9-1.82 1.45-.55.55-1.13 1.26-1.46 1.83-.33.56-.42 1.19-.73 1.82-.32.64-.7 1.11-1.1 1.82-.39.72-.8 1.48-1.09 2.19-.29.71-.49 1.46-.73 2.19s-.53 1.35-.73 2.19c-.2.83-.31 1.82-.36 2.55-.05.73.06 1.57 0 2.19-.06.61-.29 1.09-.37 1.82-.07.72 0 1.33 0 2.19 0 .85-.06 1.81 0 2.55.06.73.17 1.32.37 2.19.19.86.48 1.7.73 2.55.24.85.48 1.7.73 2.55.24.85.44 1.9.73 2.55.28.65.7 1.11 1.09 1.82.39.72.63 1.33 1.09 2.19.47.87 1.02 1.91 1.46 2.55.44.65 1.05 1.25 1.46 1.83.4.58.69 1.37 1.09 1.82.41.45.99.57 1.46 1.09.48.53.59 1.33 1.1 1.83.5.5 1.31.75 1.82 1.09.5.34.89.77 1.46 1.09.57.32 1.21.49 1.82.73.61.25.99.45 1.82.73.84.29 1.71.55 2.55.73.84.18 1.71.31 2.56.37.85.06 1.82 0 2.55 0h4.37c1.1 0 2.05.12 3.28 0 1.24-.13 2.32-.48 3.65-.73 1.34-.26 2.75-.37 4.01-.73 1.26-.36 2.45-1.04 3.65-1.46 1.19-.42 2.85-.72 3.64-1.09.8-.38 1.46-.98 2.19-1.46.73-.49 1.43-.89 2.19-1.46s1.68-1.18 2.19-1.82c.5-.64.63-1.33 1.09-2.19.46-.87 1.07-1.83 1.46-2.55.38-.72.68-1.24 1.09-2.19.42-.95.66-1.92 1.09-2.92.44-.99 1.18-1.98 1.46-2.91.29-.94.24-1.83.37-2.92.13-1.09.3-2.19.36-3.28.06-1.09 0-2.31 0-3.28 0-.98.06-1.94 0-2.92s-.18-1.93-.36-2.92c-.19-.98-.42-1.92-.73-2.91-.31-.99-.75-2.06-1.1-2.92-.34-.86-.58-1.64-1.09-2.55-.51-.91-1.32-1.83-1.82-2.55-.5-.73-1.02-1.66-1.46-2.19-.44-.53-1.06-1-1.46-1.46-.4-.46-.36-.81-1.09-1.46-.74-.65-1.81-1-2.55-1.46-.75-.46-1.27-.98-2.19-1.46-.93-.47-2.06-.74-2.92-1.09-.86-.34-1.72-.86-2.55-1.09-.83-.23-1.92-.2-2.55-.37-.63-.17-1.22-.48-1.83-.73-.6-.24-1.46-.59-1.82-.73-.36-.13-.61-.28-1.09-.36-.48-.08-.7.12-1.46 0s-.61-.22-2.19-.73c-1.57-.5-4.74-1.46-4.74-1.46M409.33 117.84s.59.63.73 1.09c.14.47-.06.84 0 1.46s.24 1.22.36 1.82c.13.61.31 1.22.37 1.83.06.6-.06 1.2 0 1.82.06.62.3 1.22.36 1.82.06.61 0 1.1 0 1.83s-.06 1.33 0 2.18c.07.86.32 1.83.37 2.56.05.72 0 1.21 0 2.18 0 .98-.06 1.94 0 2.92s.25 2.06.36 2.92c.12.85.3 1.58.37 2.55.07.97 0 2.06 0 2.92 0 .85-.06 1.69 0 2.55.06.85.3 1.7.36 2.55.06.85-.12 1.79 0 2.55.13.76.58 1.23.73 2.19.16.96 0 1.94 0 2.92v13.49c0 .97.06 2.18 0 2.91-.06.74-.3 1.46-.36 2.19s0 1.58 0 2.19v5.1c0 .49-.06.96 0 1.46s.3.98.36 1.46-.06.96 0 1.46c.06.49.32 1.09.37 1.45.04.37 0 .61 0 1.1V196.59M412.61 190.76s-.53.22-1.09 1.09c-.56.87-.64 1.81-1.1 2.92-.45 1.1-1.06 2.32-1.45 3.28-.4.96-.64 1.81-1.1 2.91-.45 1.11-1.04 2.21-1.46 3.29-.41 1.07-.64 2.05-1.09 3.28-.45 1.23-.99 2.54-1.46 3.64-.46 1.11-.85 1.94-1.46 3.28-.6 1.34-1.3 2.81-1.82 4.01-.51 1.21-1.06 2.57-1.46 3.65-.39 1.08-.57 2.03-1.09 3.28-.52 1.26-1.42 2.48-1.82 3.65-.41 1.17-.37 2.5-.73 3.64-.37 1.14-1 2.3-1.46 3.28-.47.99-.92 1.73-1.46 2.92-.54 1.2-1.01 2.66-1.46 3.65-.44.99-1.11 1.97-1.46 2.91-.34.94-.43 2.04-.73 2.92-.29.88-.61 1.46-1.09 2.55-.48 1.1-1.06 2.32-1.46 3.28-.39.96-.79 1.96-1.09 2.92-.3.96-.59 2.31-.73 2.92-.14.6-.17 1.08-.37 1.82-.19.74-.53 1.35-.72 2.19-.2.83-.18 1.57-.37 2.55-.19.98-.65 2.31-.73 2.92-.07.6.12.71 0 1.82s-.65 2.56-.73 3.28c-.08.73.13 1.55 0 2.19-.12.64-.57 1.34-.73 1.82-.15.48-.3.98-.36 1.46s.12.93 0 1.46c-.13.53-.62.98-.73 1.46-.11.47 0 1.09 0 1.45 0 .37.09 1.01 0 1.1-.09.08-.36 0-.36 0M414.44 193.31v1.09c0 .49-.07.72 0 1.46.06.74.1 1.3.36 2.19.26.89.59 1.34 1.09 2.55.5 1.21.91 2.41 1.46 3.65.56 1.24 1.22 2.43 1.82 3.64.61 1.22 1.02 2.16 1.83 3.65.8 1.48 2.04 3.21 2.55 4.37.51 1.17.63 2.18 1.09 3.65.47 1.46 1.04 2.93 1.46 4.37.42 1.45.82 3.17 1.1 4.38.27 1.21.51 2.67.72 3.64.22.98.62 1.96.73 2.92.12.97 0 1.58 0 2.92 0 1.33-.06 2.79 0 4.01.06 1.22.19 2.54.37 3.64.18 1.11.56 2.32.73 3.28.17.97.25 2.07.36 2.92.12.85.2 2.03.37 2.55.16.52.39.84.73 1.46.34.62.9 1.36 1.09 1.82.19.47.15.73.36 1.46.22.74.44 1.55.73 2.19.3.64.78 1.13 1.1 1.82.32.7.43 1.55.73 2.19.29.64.73 1.22 1.09 1.82.36.61.8 1.24 1.09 1.83.29.58.56 1.23.73 1.82.18.59.2 1.42.37 1.82.17.41.38.6.73 1.1.35.49.73.77 1.09 1.45.36.69.54 1.8.73 2.19.19.4.46.63.73 1.1.27.47.53.87.73 1.45.2.59.26 1.46.36 1.83.1.37.23.61.37 1.09.14.48.23.85.36 1.46.14.6.19 1.31.37 1.82.17.52.55.99.73 1.46.17.47.27 1.2.36 1.46.09.25.34.61.36.73.03.12 0 .36 0 .36M403.5 122.21s-.12.66-.73 1.83c-.61 1.16-1.46 2.18-2.19 3.28-.73 1.09-1.32 1.95-2.19 3.28-.86 1.33-1.67 2.57-2.55 4.01-.88 1.44-1.7 2.92-2.55 4.38-.85 1.45-1.67 3.09-2.55 4.37-.88 1.28-2.33 2.73-2.92 3.65-.59.91-1.02 2.15-1.46 2.91-.44.76-1.05 1.49-1.46 2.19-.41.71-.65 1.43-1.09 2.19-.44.76-.94 1.35-1.46 2.19-.51.83-1.02 1.9-1.46 2.55-.43.64-.94 1.11-1.45 1.82-.52.71-1.11 1.69-1.46 2.19-.35.49-.73.97-1.1 1.46-.36.48-.7.87-1.09 1.45-.4.59-.65 1.19-1.09 1.83-.45.64-1.06 1.24-1.46 1.82-.41.58-.65 1.18-1.1 1.82-.44.64-1.13 1.26-1.45 1.83-.33.56-.6 1.46-.73 1.82-.14.36-.18.7-.37 1.09-.19.4-.52.64-.73 1.1-.2.45-.18 1.05-.36 1.45-.18.41-.56.75-.73 1.1-.17.34-.14.48-.37 1.09-.22.62-.73 1.83-.73 1.83M412.61 120.76s.2.61.37 1.45c.16.85.09 1.32.36 2.56s.6 1.94 1.1 3.64c.49 1.7.8 3.13 1.45 5.11.65 1.97 1.39 3.86 2.19 5.83.8 1.97 1.79 4.33 2.55 5.83.77 1.51 1.75 2.83 2.56 4.38.8 1.54 1.55 3.29 2.18 4.74.64 1.44 1.35 3.27 1.83 4.37.47 1.1 1.19 2.34 1.45 3.28.27.95.11 1.8.37 2.92.25 1.12.64 2.05 1.09 3.28.45 1.23 1.02 2.66 1.46 3.65.45.99 1.11 1.97 1.46 2.91.35.94.27 1.76.73 2.92.46 1.16 1.29 2.21 1.82 3.28.54 1.07 1.07 2.32 1.46 3.28.39.96.66 1.92 1.09 2.92.44 1 1.14 2.09 1.46 2.92.32.82.42 1.68.73 2.55.31.87.82 1.83 1.09 2.55.28.72.59 1.71.73 2.19s.17.83.37 1.46c.2.62.46 1.1.73 1.82.26.72.53 1.79.73 2.19.19.39.45.62.73 1.09.27.47.6 1.22.72 1.46.13.24.07.31.37.73s.85.85 1.09 1.09c.25.25.51.57.73.73.22.16.73.37.73.37"/>
    </g>
    <g transform="translate(4257)">
      <text y="280" x="50" fill="blue" font-size="40">10</text>
      <circle r="6" cx="403.018" cy="73.725" fill="#3f403b" pointer-events="none"/>
      <circle r="6" cx="422.706" cy="74.089" fill="#3f403b" pointer-events="none"/>
      <path stroke="#3f403b" stroke-width="12" stroke-linecap="round" fill="none" pointer-events="none" d="M409.95 54.04h-1.46c-.85 0-1.8-.13-2.56 0-.75.12-1.47.55-2.18.73-.72.17-1.56.18-2.19.36-.63.18-1.39.45-1.82.73-.43.28-.64.7-1.1 1.09-.46.4-.94.65-1.46 1.1-.51.45-.97.97-1.45 1.46-.49.48-1.06 1-1.46 1.45-.4.46-.81 1-1.1 1.46-.28.47-.38.84-.72 1.46-.35.62-.84 1.35-1.1 1.82-.26.48-.36.73-.73 1.46-.36.73-.89 1.6-1.09 2.19-.2.59-.24 1.22-.37 1.82L388.8 73c-.12.6-.24 1.21-.37 1.82-.12.61-.25 1.33-.36 1.82-.11.49-.29.86-.36 1.46-.08.6 0 1.34 0 1.82v5.84c0 .73-.07 1.33 0 2.18.06.86.19 1.92.36 2.56.17.63.49 1.21.73 1.82.24.61.49 1.21.73 1.82.24.61.43 1.29.73 1.82s.77.89 1.09 1.46c.32.57.42 1.19.73 1.83.32.63.76 1.31 1.09 1.82.34.5.76 1.07 1.1 1.46.34.39.69.63 1.09 1.09.4.46.55.9 1.1 1.46.54.56 1.36 1.16 1.82 1.46.46.29.94.41 1.46.73.51.32.99.8 1.46 1.09.46.29.83.39 1.45.73.62.34 1.11.7 1.83 1.09.71.4 1.45.73 2.18 1.1.73.36 1.35.7 2.19 1.09.84.39 1.49.75 2.55 1.09 1.07.35 2.44.58 3.28.73.85.16 1.47.23 2.56.37 1.09.14 2.31.31 3.28.36.97.06 1.94 0 2.91 0 .98 0 1.75.25 2.92 0s2.08-.95 3.28-1.46c1.21-.5 2.52-.92 3.65-1.45 1.13-.54 2.36-1.19 3.28-1.83.92-.64 1.7-1.46 2.55-2.18.85-.73 1.8-1.49 2.55-2.19.76-.7 1.64-1.51 2.19-2.19.56-.68 1.05-1.48 1.46-2.19.41-.7.7-1.34 1.09-2.18.39-.84.73-1.71 1.1-2.56.36-.85.77-1.6 1.09-2.55.32-.95.49-1.47.73-2.92.24-1.44.31-3.16.36-4.37.06-1.21 0-2.8 0-3.65v-2.55c0-.97.07-1.82 0-2.91-.06-1.1-.19-2.42-.36-3.29-.17-.86-.5-1.81-.73-2.55-.23-.73-.45-1.22-.73-2.19-.28-.96-.36-2-.73-2.91-.36-.91-.99-1.81-1.46-2.55-.46-.75-.99-1.56-1.45-2.19-.46-.63-.91-1.27-1.46-1.82-.55-.56-1.22-.98-1.83-1.46-.6-.49-1.11-.94-1.82-1.46s-1.5-1.12-2.19-1.46c-.69-.34-1.18-.31-2.18-.73-1.01-.41-1.98-1.11-2.92-1.46-.94-.34-1.95-.55-2.92-.73-.96-.18-1.93-.18-2.91-.36-.99-.19-1.83-.6-2.92-.73-1.09-.13-1.93.12-3.28 0-1.35-.12-3.16-.59-4.01-.73-.85-.14-2.07-.33-2.55-.36-.49-.04-1.04-.13-1.46 0-.42.12-1.1.73-1.1.73"/>
      <path stroke="#3f403b" stroke-width="12" stroke-linecap="round" fill="none" pointer-events="none" d="M404.48 90.13s.32.74.73 1.09c.4.36 1.18.53 1.45.73.28.2.37.37.73.73.37.37.76.82 1.1 1.1.34.27.73.48 1.09.73.37.24.86.59 1.09.73.24.13.35.14.73.36.38.22.75.56 1.1.73.34.17.73.31 1.09.36.36.06.48-.06 1.09 0 .62.06 1.22.25 1.83.37.61.12 1.34.31 1.82.36.48.05.85 0 1.46 0h2.92c.6 0 1.44.06 1.82 0 .38-.06.61-.22 1.09-.36.48-.14.97-.24 1.46-.37.49-.12 1.06-.18 1.46-.36.4-.18.62-.46 1.09-.73.47-.27.99-.34 1.46-.73.47-.39.67-1.03 1.09-1.46.43-.43 1.24-.78 1.46-1.09.23-.31.28-.95.37-1.1.09-.14.36-.36.36-.36M405.21 122.58s-.6-.06-1.1 0c-.5.06-.97.3-1.46.36-.48.06-1.09 0-1.45 0-.37 0-.24-.06-1.1 0-.86.06-1.58.3-2.55.37-.97.07-1.82-.06-2.92 0-1.1.06-2.06.3-3.28.36-1.21.07-1.82 0-3.64 0h-5.47c-2.07 0-4.98.06-6.2 0-1.22-.06-2.31-.3-3.65-.36-1.33-.07-2.91 0-4.01 0h-12.39c-.61 0-1.45-.06-1.83 0-.38.06-.01.13-1.09.36-1.07.24-1.95.23-3.28.37-1.34.13-2.68.3-4.01.36-1.34.06-2.92 0-4.01 0h-3.28c-.49 0-1.15.23-1.46 0-.31-.22-.25-.37-.37-1.09-.11-.72 0-1.46 0-2.19v-2.19-3.28c0-.73.07-1.57 0-2.19-.06-.61-.19-.73-.36-1.82-.17-1.09-.26-2.43-.37-3.28-.1-.85-.09-1.43-.36-2.55-.26-1.12-.98-2.56-1.09-3.28-.12-.72.12-1.2 0-2.19-.13-1-.55-1.95-.73-2.92-.18-.96-.2-2.16-.37-2.91-.17-.75-.55-1.47-.73-2.19-.17-.72-.31-1.58-.36-2.19-.05-.6 0-1.34 0-1.82v-1.46-1.46-1.46-1.09c0-.37.06-.72 0-1.09-.06-.38-.23-.26-.37-1.1-.13-.84 0-2.55 0-2.55M419.79 126.22s-.07.51.36 1.46c.44.95 1.08 1.47 1.83 2.56.74 1.08 1.27 2.02 2.18 3.28.92 1.25 1.49 1.92 2.92 3.64 1.43 1.73 2.86 3.47 4.38 5.11 1.51 1.64 3.61 3.55 4.74 4.74 1.12 1.18 2.12 2.49 3.28 3.64 1.15 1.16 2.65 2.34 3.64 3.28 1 .95 2.12 2 2.92 2.92.8.92.95 1.23 2.19 2.92 1.23 1.68 2.54 3.53 3.64 5.1 1.11 1.57 2.46 3.62 3.28 4.74.82 1.12 1.9 2.34 2.56 3.28.65.94 1.28 2.25 1.82 2.92.53.67 1.46 1.46 1.82 1.82.37.37.74.55 1.1 1.09.36.55.54 1.63.72 1.83.19.2.73.36.73.36M414.68 130.96s-.21 1.34-.36 2.56c-.15 1.21-.29 2.06-.36 3.64-.08 1.58 0 3.04 0 4.74 0 1.7-.07 3.16 0 5.11.06 1.94.19 4.24.36 5.83.17 1.59.61 3.16.73 4.74.12 1.57 0 3.16 0 4.74V175.44c0 1.22.12 2.42 0 3.65s-.61 2.44-.73 3.65c-.12 1.2.06 2.42 0 3.64-.06 1.22-.24 2.43-.36 3.65-.13 1.21-.2 2.66-.37 3.64-.17.99-.64 2.2-.73 2.92-.09.72.06 1.57 0 2.19-.06.61-.31 1.34-.36 1.82-.05.48 0 1.46 0 1.46"/>
      <path stroke="#3f403b" stroke-width="12" stroke-linecap="round" fill="none" pointer-events="none" d="M412.5 199.51s.05.34.36 1.09.49.97 1.1 2.19c.6 1.21 1.38 2.58 1.82 3.64.44 1.07.66 2.17 1.09 3.28.44 1.12.86 1.95 1.46 3.29.6 1.33 1.19 2.56 1.82 4.01.63 1.44 1.22 2.91 1.83 4.37.6 1.46 1.28 2.94 1.82 4.38s1.01 3.14 1.46 4.37c.45 1.23.79 2.16 1.46 3.65.66 1.48 1.53 2.94 2.18 4.37.66 1.44 1.29 2.94 1.83 4.38s1.13 3.51 1.45 4.37c.33.87.62 1.46 1.1 2.55.48 1.1.8 2.03 1.46 3.29.65 1.25 1.63 2.58 2.18 3.64.56 1.06 1.14 2.33 1.46 3.28.33.95.42 1.93.73 2.92s.8 1.96 1.1 2.92c.29.95.48 1.94.72 2.91.25.97.55 1.96.73 2.92.18.96.18 1.93.37 2.92.18.98.59 2.31.73 2.91.13.61.22.98.36 1.83.15.84.18 1.68.37 2.55.18.86.43 1.79.73 2.55.29.76.82 1.59 1.09 2.19.27.59.51 1.32.73 1.82.22.5.58 1.1.73 1.46.15.35.14.48.36 1.09.23.62 1.59 1.26.73 1.82-.86.57-2.19-2.18-2.19-2.18M408.85 195.86s-.06-.27-1.09 1.46c-1.04 1.72-1.3 2.69-2.55 5.47-1.26 2.78-2.09 4.85-3.65 8.38-1.56 3.54-3.44 7.45-4.74 10.58-1.3 3.12-2.74 6.94-3.65 9.47-.9 2.54-1.85 5.26-2.55 7.66-.7 2.41-1.23 4.98-1.82 7.29-.59 2.32-1.26 4.51-1.82 6.93-.56 2.41-1.03 5.45-1.46 7.29-.43 1.84-1.02 4-1.46 5.47-.44 1.47-1.22 3.3-1.46 4.38-.23 1.07-.25 2.42-.36 3.28-.11.85-.24 1.58-.37 2.55-.13.97-.26 2.18-.36 2.92-.11.73-.26 1.69-.37 2.18-.1.49-.3.98-.36 1.46s.16 1.39 0 1.46c-.16.07-.37-.37-.37-.37"/>
    </g>
    <g transform="translate(4730)">
      <text y="280" x="50" fill="blue" font-size="40">11</text>
      <circle r="6" cx="403.747" cy="73.725" fill="#3f403b" pointer-events="none"/>
      <path stroke="#3f403b" stroke-width="12" stroke-linecap="round" fill="none" pointer-events="none" d="M423.43 72.63V73M403.75 87.58s.7.87 1.09 1.46c.4.59.48 1.1 1.09 1.82.62.72 1.59 1.33 2.19 1.82.61.5 1.24 1.06 1.83 1.46.58.41 1.34.83 1.82 1.1.47.26.97.48 1.46.72.48.25.98.62 1.45.73.48.12.85-.06 1.46 0 .62.06 1.22.31 1.83.37.6.06 1.2-.06 1.82 0 .62.06 1.34.31 1.82.36.49.05.93.13 1.46 0 .53-.12.87-.53 1.46-.73.58-.2 1.42-.19 1.82-.36.41-.17.7-.4 1.1-.73.39-.33.65-.85 1.09-1.09.44-.25 1.16-.2 1.46-.37.3-.17.45-.39.73-.73.27-.34.42-.86.73-1.09.3-.23 1.09-.37 1.09-.37M406.66 119.3s-1.08-.51-1.45-.73c-.38-.22-.6-.38-1.1-.73-.49-.35-.74-.59-1.46-1.09-.71-.51-1.32-.87-2.18-1.46-.86-.6-1.27-1.02-2.56-1.83-1.29-.8-2.16-1.13-4.01-2.18-1.84-1.06-4.4-2.73-5.47-3.28-1.06-.56-2.43-1.09-3.28-1.46-.84-.37-1.78-.68-2.55-1.1-.77-.41-1.65-1.02-2.19-1.45-.53-.44-.66-.79-1.45-1.46-.8-.68-1.67-1.14-2.56-1.83-.88-.69-1.28-1.24-2.55-2.18-1.27-.95-2.88-1.76-4.01-2.56-1.13-.79-1.83-1.44-3.28-2.55-1.45-1.1-2.66-1.96-4.38-3.28-1.71-1.32-3.65-2.9-5.1-4.01-1.45-1.11-3.27-2.44-4.37-3.28-1.11-.84-1.84-1.45-3.29-2.55-1.44-1.11-2.81-2.16-4.37-3.28-1.56-1.13-3.03-2.08-4.74-3.29-1.71-1.2-4.12-2.92-5.1-3.64-.98-.72-2.21-1.68-2.92-2.19-.72-.5-1.59-1.08-2.19-1.46-.6-.38-1.5-.79-1.82-1.09-.32-.3-.35-.5-.73-1.09-.38-.6-.6-.98-1.09-1.83-.5-.84-.42-1.18-1.46-2.55-1.05-1.37-3.65-3.65-3.65-3.65"/>
      <path stroke="#3f403b" stroke-width="12" stroke-linecap="round" fill="none" pointer-events="none" d="M417.97 51.85h-1.46c-.49 0-.6-.06-1.46 0s-1.58.23-2.55.36c-.97.13-2.05.19-2.92.37-.87.18-1.7.49-2.55.73-.85.24-1.93.52-2.55.73-.62.21-1.33.5-1.83.73-.49.22-.94.41-1.45.73-.52.32-.9.55-1.46 1.09-.56.54-.91 1.27-1.46 1.82-.55.55-1.27.91-1.82 1.46-.55.55-.86 1.09-1.46 1.82-.6.74-1.45 1.71-1.83 2.19-.37.48-.8 1-1.09 1.46-.28.46-.41.94-.73 1.46-.32.51-.84.89-1.09 1.46-.26.56-.16.96-.37 1.82-.21.86-.55 1.71-.73 2.55-.18.84-.25 1.82-.36 2.55-.11.73-.24 1.46-.37 2.19-.12.73-.3 1.46-.36 2.19-.06.72 0 1.58 0 2.19v1.82c0 .73-.12 1.43 0 2.19.12.75.61 1.46.73 2.18.12.72-.12 1.43 0 2.19s.33 1.29.73 2.19c.4.89 1.04 1.72 1.46 2.55.41.83.73 1.7 1.09 2.55.37.85.73 1.7 1.09 2.55.37.86.66 1.68 1.1 2.56.44.87.89 1.67 1.46 2.55.56.88 1.24 1.8 1.82 2.55.58.75 1.24 1.55 1.82 2.19.58.63 1.12 1.18 1.83 1.82.7.64 1.61 1.41 2.18 1.82.58.41 1.05.55 1.83 1.1.77.55 1.27 1.23 2.18 1.82.91.6 2.1 1.14 2.92 1.46.82.32 1.82.5 2.55.73.74.23 1.23.45 2.19.73.96.28 1.71.58 2.92.73 1.2.15 2.27.18 3.64 0 1.38-.19 2.32-.69 4.01-1.1 1.69-.41 3.48-.61 5.11-1.09 1.62-.48 3.04-1.2 4.74-1.82 1.69-.63 3.74-1.07 5.1-1.83 1.36-.75 2.71-1.85 3.65-2.91.93-1.07 1.38-2.4 2.18-3.65.81-1.24 1.71-2.43 2.56-3.64.85-1.22 1.81-2.57 2.55-3.65.74-1.09 1.48-1.79 2.19-3.28.7-1.5 1.24-3.3 1.45-4.74.22-1.44.06-3.04 0-4.38-.06-1.34-.25-2.91-.36-4.01-.11-1.09-.04-1.78-.37-3.28-.33-1.5-.99-3.03-1.45-4.37-.47-1.35-1.03-3.02-1.46-4.01-.43-1-.95-1.84-1.46-2.92-.51-1.08-.86-2.33-1.46-3.28-.6-.95-1.49-1.8-2.19-2.55-.7-.76-1.54-1.49-2.18-2.19-.64-.7-1.17-1.6-1.83-2.19-.65-.58-.88-.67-2.18-1.46-1.31-.78-3.07-1.75-4.01-2.18-.95-.44-1.92-.66-2.92-1.1-1-.43-2.08-1.07-2.92-1.46-.84-.39-1.6-.83-2.55-1.09-.95-.26-2.19-.26-2.92-.36-.73-.11-1.09-.22-2.18-.37s-2.68-.33-3.29-.36c-.6-.04-1.45 0-1.82 0-.36 0-.71-.21-1.09 0-.39.2-.39.4-.73 1.09-.34.69-.73 2.19-.73 2.19M420.52 129.14s.54 1.05 1.09 1.82c.55.78.69 1.01 1.82 2.19 1.14 1.18 2.49 2.13 3.65 3.28 1.16 1.16 2.07 2.31 3.28 3.65 1.21 1.34 2.4 2.58 3.65 4.01 1.24 1.43 2.46 3.01 3.64 4.37 1.19 1.37 2.2 2.43 3.65 4.01 1.45 1.59 3.09 3.47 4.37 4.74 1.29 1.28 3.11 2.73 4.01 3.65.91.92 1.71 1.94 2.56 2.92.85.97 1.46 1.69 2.55 2.91 1.08 1.23 1.7 2.17 3.28 3.65 1.58 1.48 4.55 3.46 5.1 4.01.56.55 1.06 1.24 1.46 1.82.41.58.78 1.65 1.1 1.83.31.18 1.09 0 1.09 0M413.59 132.06v2.91c0 1.34.06 2.43 0 4.02-.06 1.58-.29 2.79-.36 4.73-.08 1.95 0 4.26 0 5.84V191.85c0 .36-.06.6 0 1.09.06.5.32 1.1.36 1.46.05.36-.06.6 0 1.1.06.49.23.85.37 1.45.13.61.24 1.22.36 1.83.12.6.32 1.34.36 1.82.05.48 0 1.46 0 1.46M416.14 201.33s.62.43 1.1 1.09c.47.66.6 1.22 1.09 2.19.49.97.85 1.7 1.46 2.92.61 1.21.87 1.81 1.82 3.64.95 1.84 1.79 3.59 2.92 5.47 1.12 1.88 2.59 3.5 3.64 5.47 1.05 1.97 1.56 4.08 2.56 6.2.99 2.11 2.38 4.4 3.28 6.2.89 1.8 1.89 3.91 2.55 5.46.66 1.56 1.32 3.41 1.82 4.74.5 1.34 1.02 2.58 1.46 4.01.44 1.44.56 2.53 1.09 4.38.54 1.84 1.43 4.14 1.83 5.47.4 1.32.79 2.68 1.09 4.01.3 1.32.35 2.52.73 4.01.38 1.49.97 2.92 1.46 4.37.49 1.46.9 2.9 1.46 4.38.55 1.48 1.46 3.52 1.82 4.37.36.86.77 1.61 1.09 2.56.32.95.45 2.15.73 2.91.29.77.92 1.72 1.1 2.19.17.47.32 1.1.36 1.46.05.36-.12.56 0 1.09.13.53.62.99.73 1.46.11.47-.06.96 0 1.46s.81 1.2.37 1.46c-.45.25-1.1-1.1-1.1-1.1M408.49 197.68s-.35.3-1.1 1.83c-.74 1.52-1.17 2.93-1.82 4.74-.65 1.8-1.11 3.39-1.82 5.46-.71 2.08-1.51 4.04-2.19 6.2-.68 2.17-.99 4.08-1.82 6.56-.84 2.48-2.04 5-2.92 7.3-.88 2.29-1.61 4.48-2.55 6.92-.94 2.45-2.19 5.47-2.92 7.3-.73 1.82-1.39 3.62-2.19 5.46-.8 1.85-1.84 3.69-2.55 5.47-.71 1.79-1.18 3.85-1.82 5.47-.64 1.62-1.65 3.43-2.19 4.74-.54 1.32-1.1 3.04-1.46 4.01-.36.98-.83 2.19-1.09 2.92-.26.72-.5 1.57-.73 2.19-.22.61-.51 1.32-.73 1.82-.22.49-.55.99-.73 1.46-.17.47-.26 1.09-.36 1.46-.11.36-.31.73-.37 1.09-.06.36.06.24 0 1.09-.06.86-.36 2.55-.36 2.55"/>
    </g>
  </g>
</svg>
